<svg xmlns="http://www.w3.org/2000/svg" width="160" height="40" version="1.2" viewBox="0 0 120 30"><defs><clipPath id="a"><path d="M9.273 5.406h24.223v18.965H9.273Zm0 0"/></clipPath><clipPath id="b"><path d="M10 5.406h22.719c.402 0 .726.324.726.727v17.512a.725.725 0 0 1-.726.726H10a.725.725 0 0 1-.727-.726V6.133c0-.403.325-.727.727-.727Zm0 0"/></clipPath><clipPath id="c"><path d="M18 8h24v21.031H18Zm0 0"/></clipPath><clipPath id="d"><path d="M16 8h24v21.031H16Zm0 0"/></clipPath></defs><g clip-path="url(#a)"><g clip-path="url(#b)"><path d="M9.273 5.406h24.149v18.965H9.273Zm0 0" style="stroke:none;fill-rule:nonzero;fill:#5db5bd;fill-opacity:1"/></g></g><path d="M.001 3.496h19.416" style="fill:none;stroke-width:7;stroke-linecap:butt;stroke-linejoin:miter;stroke:#fff;stroke-opacity:1;stroke-miterlimit:4" transform="rotate(90 4.366 11.983) scale(.46415)"/><path d="M.001 3.498h19.416" style="fill:none;stroke-width:7;stroke-linecap:butt;stroke-linejoin:miter;stroke:#fff;stroke-opacity:1;stroke-miterlimit:4" transform="rotate(90 10.601 18.218) scale(.46415)"/><g clip-path="url(#c)"><path d="m0 2 8.496.002" style="fill:none;stroke-width:4;stroke-linecap:butt;stroke-linejoin:miter;stroke:#fff;stroke-opacity:1;stroke-miterlimit:4" transform="scale(-.447) rotate(-45.221 -88.211 63.378)"/></g><g clip-path="url(#d)"><path d="M.001 2H8.43" style="fill:none;stroke-width:4;stroke-linecap:butt;stroke-linejoin:miter;stroke:#fff;stroke-opacity:1;stroke-miterlimit:4" transform="scale(.45033) rotate(45 -18.506 94.1)"/></g><g style="fill:#444;fill-opacity:1"><path d="M5.828-7.734h4.469l-.563-2.047a64.016 64.016 0 0 1-.828-3.031c-.261-1.051-.539-2.086-.828-3.11h-.094c-.242 1.031-.496 2.07-.765 3.11a131.44 131.44 0 0 1-.828 3.03ZM12.422 0l-1.328-4.813H5.016L3.703 0H-.094l6-18.75h4.407L16.343 0Zm0 0" style="stroke:none" transform="translate(39.116 24.676)"/></g><g style="fill:#444;fill-opacity:1"><path d="M2.313 0v-18.75h3.75v15.61h7.593V0Zm0 0" style="stroke:none" transform="translate(55.356 24.676)"/></g><g style="fill:#444;fill-opacity:1"><path d="M6.031 0v-15.64H.766v-3.11h14.343v3.11H9.781V0Zm0 0" style="stroke:none" transform="translate(66.527 24.676)"/></g><g style="fill:#444;fill-opacity:1"><path d="M2.313 0v-18.75h11.5v3.11h-7.75v4.343h6.578v3.14H6.062v5.016h8.032V0Zm0 0" style="stroke:none" transform="translate(82.361 24.676)"/></g><g style="fill:#444;fill-opacity:1"><path d="M2.313 0v-18.75h11.5v3.11h-7.75v4.343h6.578v3.14H6.062v5.016h8.032V0Zm0 0" style="stroke:none" transform="translate(97.943 24.676)"/></g></svg>