<svg xmlns="http://www.w3.org/2000/svg" width="2560" height="1450" version="1.2" viewBox="0 0 1920 1087.5"><defs><clipPath id="a"><path d="M.441 0H1919.56v1087H.44Zm0 0"/></clipPath><clipPath id="b"><path d="M.441 51.406H420v223.137H.441Zm0 0"/></clipPath><clipPath id="c"><path d="M12.438 51.406h395.558c6.625 0 11.996 5.371 11.996 11.996v199.149c0 6.625-5.37 11.992-11.996 11.992H12.438c-6.626 0-11.997-5.367-11.997-11.992V63.402c0-6.625 5.372-11.996 11.996-11.996Zm0 0"/></clipPath><clipPath id="d"><path d="M480.102 51.406H900v223.137H480.102Zm0 0"/></clipPath><clipPath id="e"><path d="M492.094 51.406h395.562c6.625 0 11.996 5.371 11.996 11.996v199.149c0 6.625-5.37 11.992-11.996 11.992H492.094c-6.621 0-11.992-5.367-11.992-11.992V63.402c0-6.625 5.37-11.996 11.992-11.996Zm0 0"/></clipPath><clipPath id="f"><path d="M959.625 51.406H1379v223.137H959.625Zm0 0"/></clipPath><clipPath id="g"><path d="M971.617 51.406h395.563c6.625 0 11.992 5.371 11.992 11.996v199.149c0 6.625-5.367 11.992-11.992 11.992H971.617c-6.625 0-11.992-5.367-11.992-11.992V63.402c0-6.625 5.367-11.996 11.992-11.996Zm0 0"/></clipPath><clipPath id="h"><path d="M1439.898 51.406H1860v223.137h-420.102Zm0 0"/></clipPath><clipPath id="i"><path d="M1451.895 51.406h395.558c6.625 0 11.996 5.371 11.996 11.996v199.149c0 6.625-5.37 11.992-11.996 11.992h-395.558c-6.625 0-11.997-5.367-11.997-11.992V63.402c0-6.625 5.372-11.996 11.997-11.996Zm0 0"/></clipPath><clipPath id="j"><path d="M336 51.406h83.5V70H336Zm0 0"/></clipPath><clipPath id="k"><path d="M313 51.406h106.5V93H313Zm0 0"/></clipPath><clipPath id="l"><path d="M290 51.406h129.5V116H290Zm0 0"/></clipPath><clipPath id="m"><path d="M267 51.406h152.5V139H267Zm0 0"/></clipPath><clipPath id="n"><path d="M244 51.406h175.5V162H244Zm0 0"/></clipPath><clipPath id="o"><path d="M221 51.406h198.5V185H221Zm0 0"/></clipPath><clipPath id="p"><path d="M198 51.406h221.5V208H198Zm0 0"/></clipPath><clipPath id="q"><path d="M175 51.406h244.5V230H175Zm0 0"/></clipPath><clipPath id="r"><path d="M152 51.406h267.5V253H152Zm0 0"/></clipPath><clipPath id="s"><path d="M129 51.406h290.5v221.149H129Zm0 0"/></clipPath><clipPath id="t"><path d="M106 51.406h313.5v221.149H106Zm0 0"/></clipPath><clipPath id="u"><path d="M83 51.406h336.5v221.149H83Zm0 0"/></clipPath><clipPath id="v"><path d="M60 51.406h359.5v221.149H60Zm0 0"/></clipPath><clipPath id="w"><path d="M37 51.406h382.5v221.149H37Zm0 0"/></clipPath><clipPath id="x"><path d="M14 51.406h405.5v221.149H14Zm0 0"/></clipPath><clipPath id="y"><path d="M5.688 51.406H419.5v221.149H5.687Zm0 0"/></clipPath><clipPath id="z"><path d="M5.688 51.406H409v221.149H5.687Zm0 0"/></clipPath><clipPath id="A"><path d="M5.688 51.406H386v221.149H5.687Zm0 0"/></clipPath><clipPath id="B"><path d="M5.688 51.406H363v221.149H5.687Zm0 0"/></clipPath><clipPath id="C"><path d="M5.688 66H340v206.555H5.687Zm0 0"/></clipPath><clipPath id="D"><path d="M5.688 89H317v183.555H5.687Zm0 0"/></clipPath><clipPath id="E"><path d="M5.688 112H294v160.555H5.687Zm0 0"/></clipPath><clipPath id="F"><path d="M5.688 135H271v137.555H5.687Zm0 0"/></clipPath><clipPath id="G"><path d="M5.688 157H248v115.555H5.687Zm0 0"/></clipPath><clipPath id="H"><path d="M5.688 180H225v92.555H5.687Zm0 0"/></clipPath><clipPath id="I"><path d="M5.688 203H202v69.555H5.687Zm0 0"/></clipPath><clipPath id="J"><path d="M5.688 226H179v46.555H5.687Zm0 0"/></clipPath><clipPath id="K"><path d="M5.688 249H156v23.555H5.687Zm0 0"/></clipPath><clipPath id="L"><path d="M5.688 272H133v.555H5.687Zm0 0"/></clipPath><clipPath id="M"><path d="M.441 586.672h149.2v116.805H.44Zm0 0"/></clipPath><clipPath id="N"><path d="M8.688 586.672h132.39a8.246 8.246 0 0 1 8.246 8.246V695.23a8.246 8.246 0 0 1-8.246 8.247H8.688a8.246 8.246 0 0 1-8.246-8.246V594.917a8.246 8.246 0 0 1 8.245-8.246Zm0 0"/></clipPath><clipPath id="O"><path d="M960 586.672h149v116.805H960Zm0 0"/></clipPath><clipPath id="P"><path d="M968.246 586.672h132.39a8.246 8.246 0 0 1 8.247 8.246V695.23a8.246 8.246 0 0 1-8.246 8.247h-132.39a8.262 8.262 0 0 1-5.833-2.414A8.246 8.246 0 0 1 960 695.23V594.918a8.246 8.246 0 0 1 8.246-8.246Zm0 0"/></clipPath><clipPath id="Q"><path d="M327.926 795.188H552.82v224.894H327.926Zm0 0"/></clipPath><clipPath id="R"><path d="M440.371 795.188c-62.101 0-112.445 50.343-112.445 112.445 0 62.105 50.344 112.449 112.445 112.449 62.106 0 112.45-50.344 112.45-112.45 0-62.1-50.344-112.444-112.45-112.444Zm0 0"/></clipPath><clipPath id="S"><path d="M358.184 847.02h164.171v121.44H358.184Zm0 0"/></clipPath><clipPath id="T"><path d="M1294 51.406h83.57V70H1294Zm0 0"/></clipPath><clipPath id="U"><path d="M1271 51.406h106.57V93H1271Zm0 0"/></clipPath><clipPath id="V"><path d="M1248 51.406h129.57V116H1248Zm0 0"/></clipPath><clipPath id="W"><path d="M1225 51.406h152.57V139H1225Zm0 0"/></clipPath><clipPath id="X"><path d="M1202 51.406h175.57V162H1202Zm0 0"/></clipPath><clipPath id="Y"><path d="M1179 51.406h198.57V185H1179Zm0 0"/></clipPath><clipPath id="Z"><path d="M1156 51.406h221.57V208H1156Zm0 0"/></clipPath><clipPath id="aa"><path d="M1133 51.406h244.57V230H1133Zm0 0"/></clipPath><clipPath id="ab"><path d="M1110 51.406h267.57V253H1110Zm0 0"/></clipPath><clipPath id="ac"><path d="M1087 51.406h290.57v221.149H1087Zm0 0"/></clipPath><clipPath id="ad"><path d="M1064 51.406h313.57v221.149H1064Zm0 0"/></clipPath><clipPath id="ae"><path d="M1041 51.406h336.57v221.149H1041Zm0 0"/></clipPath><clipPath id="af"><path d="M1018 51.406h359.57v221.149H1018Zm0 0"/></clipPath><clipPath id="ag"><path d="M995 51.406h382.57v221.149H995Zm0 0"/></clipPath><clipPath id="ah"><path d="M973 51.406h404.57v221.149H973Zm0 0"/></clipPath><clipPath id="ai"><path d="M963.758 51.406h413.812v221.149H963.758Zm0 0"/></clipPath><clipPath id="aj"><path d="M963.758 51.406H1367v221.149H963.758Zm0 0"/></clipPath><clipPath id="ak"><path d="M963.758 51.406H1344v221.149H963.758Zm0 0"/></clipPath><clipPath id="al"><path d="M963.758 51.406H1321v221.149H963.758Zm0 0"/></clipPath><clipPath id="am"><path d="M963.758 66H1298v206.555H963.758Zm0 0"/></clipPath><clipPath id="an"><path d="M963.758 89H1275v183.555H963.758Zm0 0"/></clipPath><clipPath id="ao"><path d="M963.758 112H1252v160.555H963.758Zm0 0"/></clipPath><clipPath id="ap"><path d="M963.758 135H1229v137.555H963.758Zm0 0"/></clipPath><clipPath id="aq"><path d="M963.758 157H1206v115.555H963.758Zm0 0"/></clipPath><clipPath id="ar"><path d="M963.758 180H1183v92.555H963.758Zm0 0"/></clipPath><clipPath id="as"><path d="M963.758 203H1160v69.555H963.758Zm0 0"/></clipPath><clipPath id="at"><path d="M963.758 226H1137v46.555H963.758Zm0 0"/></clipPath><clipPath id="au"><path d="M963.758 249H1114v23.555H963.758Zm0 0"/></clipPath><clipPath id="av"><path d="M963.758 272H1091v.555H963.758Zm0 0"/></clipPath><clipPath id="aw"><path d="M982.89 795.188h224.9v224.894h-224.9Zm0 0"/></clipPath><clipPath id="ax"><path d="M1095.34 795.188c-62.106 0-112.45 50.343-112.45 112.445 0 62.105 50.344 112.449 112.45 112.449 62.101 0 112.45-50.344 112.45-112.45 0-62.1-50.349-112.444-112.45-112.444Zm0 0"/></clipPath><clipPath id="ay"><path d="M655.406 795.188h224.899v224.894H655.406Zm0 0"/></clipPath><clipPath id="az"><path d="M.441 795.188h224.895v224.894H.44Zm0 0"/></clipPath><clipPath id="aA"><path d="M12.438 795.188h200.906c6.625 0 11.992 5.367 11.992 11.992v200.906c0 6.625-5.367 11.996-11.992 11.996H12.438c-6.626 0-11.997-5.371-11.997-11.996V807.18c0-6.625 5.372-11.992 11.996-11.992Zm0 0"/></clipPath><clipPath id="aB"><path d="M1310.375 795.188h224.895v224.894h-224.895Zm0 0"/></clipPath><clipPath id="aC"><path d="M1322.367 795.188h200.91c6.625 0 11.993 5.367 11.993 11.992v200.906c0 6.625-5.368 11.996-11.993 11.996h-200.91c-6.625 0-11.992-5.371-11.992-11.996V807.18c0-6.625 5.367-11.992 11.992-11.992Zm0 0"/></clipPath><clipPath id="aD"><path d="M1637.855 795.188h224.899v224.894h-224.899Zm0 0"/></clipPath><clipPath id="aE"><path d="M1750.305 795.188c-62.102 0-112.45 50.343-112.45 112.445 0 62.105 50.348 112.449 112.45 112.449 62.105 0 112.449-50.344 112.449-112.45 0-62.1-50.344-112.444-112.45-112.444Zm0 0"/></clipPath><clipPath id="aF"><path d="M28 823.887h162v167.176H28Zm0 0"/></clipPath><clipPath id="aG"><path d="M695.188 830.43h145.43v154.425h-145.43Zm0 0"/></clipPath><clipPath id="aH"><path d="M1352 824h151.652v174H1352Zm0 0"/></clipPath><clipPath id="aI"><path d="M1346 817.402h152V990h-152Zm0 0"/></clipPath><clipPath id="aJ"><path d="M1359 894h84v84h-84Zm0 0"/></clipPath><clipPath id="aK"><path d="m1426.3 817.512 29.614-.11c.32 16.926 8.473 27.317 17.594 33.743 0 .109.11.109.11.109 6.437 4.82 14.054 7.281 23.6 7.496v29.563c-16.843 0-30.792-5.461-41.304-13.282l-.11 61.7c-.214 16.71-7.402 29.136-16.093 37.382-.75.75-1.5 1.5-2.36 2.14-11.156 9.43-22.097 13.821-37.12 13.716-14.805-.215-25.965-5.785-35.403-13.926-7.082-6.106-12.77-14.031-15.988-24.961-6.973-23.992 1.824-47.773 21.672-61.375.43-.32.965-.64 1.504-.965 16.093-10.066 35.187-12.316 54.18-2.781.105 13.922 0 28.812 0 42.629-4.505-16.817-26.825-25.707-41.415-13.067l-.535.536c-5.793 4.925-8.371 12.64-7.941 20.886 1.074 14.785 13.304 23.996 26.61 23.352h.105c12.875-1.285 23.5-11.781 23.175-25.922Zm0 0"/></clipPath><clipPath id="aL"><path d="M1352 824h145.434v166H1352Zm0 0"/></clipPath><clipPath id="aM"><path d="m1426.3 817.512 29.614-.11c.32 16.926 8.473 27.317 17.594 33.743 0 .109.11.109.11.109 6.437 4.82 14.054 7.281 23.6 7.496v29.563c-16.843 0-30.792-5.461-41.304-13.282l-.11 61.7c-.214 16.71-7.402 29.136-16.093 37.382-.75.75-1.5 1.5-2.36 2.14-11.156 9.43-22.097 13.821-37.12 13.716-14.805-.215-25.965-5.785-35.403-13.926-7.082-6.106-12.77-14.031-15.988-24.961-6.973-23.992 1.824-47.773 21.672-61.375.43-.32.965-.64 1.504-.965 16.093-10.066 35.187-12.316 54.18-2.781.105 13.922 0 28.812 0 42.629-4.505-16.817-26.825-25.707-41.415-13.067l-.535.536c-5.793 4.925-8.371 12.64-7.941 20.886 1.074 14.785 13.304 23.996 26.61 23.352h.105c12.875-1.285 23.5-11.781 23.175-25.922Zm0 0"/></clipPath><clipPath id="aN"><path d="M1032.762 843.648h125.191V971.84h-125.191Zm0 0"/></clipPath><clipPath id="aO"><path d="M1680 837.207h140.813v140.934H1680Zm0 0"/></clipPath></defs><g clip-path="url(#a)"><path d="M.441 0H1919.56v1087H.44Zm0 0" style="stroke:none;fill-rule:nonzero;fill:#fff;fill-opacity:1"/><path d="M.441 0H1919.56v1087H.44Zm0 0" style="stroke:none;fill-rule:nonzero;fill:#031e1d;fill-opacity:1"/></g><g clip-path="url(#b)"><g clip-path="url(#c)"><path d="M.441 51.406h419.254v223.137H.441Zm0 0" style="stroke:none;fill-rule:nonzero;fill:#3c3c3c;fill-opacity:1"/></g></g><g clip-path="url(#d)"><g clip-path="url(#e)"><path d="M480.102 51.406h419.25v223.137h-419.25Zm0 0" style="stroke:none;fill-rule:nonzero;fill:#3c3c3c;fill-opacity:1"/></g></g><g clip-path="url(#f)"><g clip-path="url(#g)"><path d="M959.625 51.406h419.25v223.137h-419.25Zm0 0" style="stroke:none;fill-rule:nonzero;fill:#3c3c3c;fill-opacity:1"/></g></g><g clip-path="url(#h)"><g clip-path="url(#i)"><path d="M1439.898 51.406h419.254v223.137h-419.254Zm0 0" style="stroke:none;fill-rule:nonzero;fill:#3c3c3c;fill-opacity:1"/></g></g><g clip-path="url(#j)"><path d="M336.316-34.906 440.488 69.266v-4.477l-99.695-99.695h-4.477" style="stroke:none;fill-rule:nonzero;fill:#302f2f;fill-opacity:1"/></g><g clip-path="url(#k)"><path d="M440.488 87.746 317.836-34.906h-4.477L440.49 92.223v-4.477" style="stroke:none;fill-rule:nonzero;fill:#302f2f;fill-opacity:1"/></g><g clip-path="url(#l)"><path d="M290.406-34.906 440.488 115.18v-4.477L294.883-34.907h-4.477" style="stroke:none;fill-rule:nonzero;fill:#302f2f;fill-opacity:1"/></g><g clip-path="url(#m)"><path d="M440.488 133.66 271.922-34.906h-4.473l173.04 173.039v-4.473" style="stroke:none;fill-rule:nonzero;fill:#302f2f;fill-opacity:1"/></g><g clip-path="url(#n)"><path d="M244.492-34.906 440.488 161.09v-4.477l-191.52-191.52h-4.476" style="stroke:none;fill-rule:nonzero;fill:#302f2f;fill-opacity:1"/></g><g clip-path="url(#o)"><path d="M440.488 179.574 226.012-34.906h-4.477l218.953 218.953v-4.473" style="stroke:none;fill-rule:nonzero;fill:#302f2f;fill-opacity:1"/></g><g clip-path="url(#p)"><path d="m198.582-34.906 241.906 241.914v-4.48L203.055-34.907h-4.473" style="stroke:none;fill-rule:nonzero;fill:#302f2f;fill-opacity:1"/></g><g clip-path="url(#q)"><path d="m440.488 225.484-260.39-260.39h-4.477L440.488 229.96v-4.477" style="stroke:none;fill-rule:nonzero;fill:#302f2f;fill-opacity:1"/></g><g clip-path="url(#r)"><path d="m152.668-34.906 287.82 287.82v-4.473L157.141-34.906h-4.473" style="stroke:none;fill-rule:nonzero;fill:#302f2f;fill-opacity:1"/></g><g clip-path="url(#s)"><path d="m440.488 271.398-306.3-306.304h-4.481l310.781 310.781v-4.477" style="stroke:none;fill-rule:nonzero;fill:#302f2f;fill-opacity:1"/></g><g clip-path="url(#t)"><path d="M440.488 294.352 111.23-34.906h-4.476l333.734 333.738v-4.48" style="stroke:none;fill-rule:nonzero;fill:#302f2f;fill-opacity:1"/></g><g clip-path="url(#u)"><path d="M440.488 317.309 88.273-34.906h-4.476l356.691 356.691v-4.476" style="stroke:none;fill-rule:nonzero;fill:#302f2f;fill-opacity:1"/></g><g clip-path="url(#v)"><path d="M440.488 340.266 65.316-34.906H60.84l379.648 379.648v-4.476" style="stroke:none;fill-rule:nonzero;fill:#302f2f;fill-opacity:1"/></g><g clip-path="url(#w)"><path d="M440.488 363.223 42.363-34.907h-4.48L440.488 367.7v-4.476" style="stroke:none;fill-rule:nonzero;fill:#302f2f;fill-opacity:1"/></g><g clip-path="url(#x)"><path d="M440.488 386.18 19.406-34.906H14.93l425.558 425.562v-4.476" style="stroke:none;fill-rule:nonzero;fill:#302f2f;fill-opacity:1"/></g><g clip-path="url(#y)"><path d="M431.25 399.895 5.687-25.668v4.48l421.086 421.083h4.477" style="stroke:none;fill-rule:nonzero;fill:#302f2f;fill-opacity:1"/></g><g clip-path="url(#z)"><path d="M408.293 399.895 5.687-2.711v4.477l398.13 398.129h4.476" style="stroke:none;fill-rule:nonzero;fill:#302f2f;fill-opacity:1"/></g><g clip-path="url(#A)"><path d="M385.336 399.895 5.687 20.246v4.477L380.86 399.895h4.477" style="stroke:none;fill-rule:nonzero;fill:#302f2f;fill-opacity:1"/></g><g clip-path="url(#B)"><path d="M362.383 399.895 5.688 43.203v4.477l352.214 352.215h4.48" style="stroke:none;fill-rule:nonzero;fill:#302f2f;fill-opacity:1"/></g><g clip-path="url(#C)"><path d="M339.426 399.895 5.688 66.156v4.48l329.261 329.259h4.477" style="stroke:none;fill-rule:nonzero;fill:#302f2f;fill-opacity:1"/></g><g clip-path="url(#D)"><path d="M316.469 399.895 5.688 89.113v4.477l306.304 306.305h4.477" style="stroke:none;fill-rule:nonzero;fill:#302f2f;fill-opacity:1"/></g><g clip-path="url(#E)"><path d="m5.688 116.547 283.347 283.348h4.473L5.688 112.075v4.472" style="stroke:none;fill-rule:nonzero;fill:#302f2f;fill-opacity:1"/></g><g clip-path="url(#F)"><path d="M270.559 399.895 5.687 135.027v4.477l260.391 260.39h4.48" style="stroke:none;fill-rule:nonzero;fill:#302f2f;fill-opacity:1"/></g><g clip-path="url(#G)"><path d="m5.688 162.46 237.437 237.435h4.477L5.687 157.985v4.476" style="stroke:none;fill-rule:nonzero;fill:#302f2f;fill-opacity:1"/></g><g clip-path="url(#H)"><path d="M224.64 399.895 5.689 180.94v4.473l214.48 214.48h4.473" style="stroke:none;fill-rule:nonzero;fill:#302f2f;fill-opacity:1"/></g><g clip-path="url(#I)"><path d="m5.688 208.375 191.519 191.52h4.477L5.688 203.898v4.477" style="stroke:none;fill-rule:nonzero;fill:#302f2f;fill-opacity:1"/></g><g clip-path="url(#J)"><path d="M178.73 399.895 5.688 226.855v4.473l168.566 168.567h4.476" style="stroke:none;fill-rule:nonzero;fill:#302f2f;fill-opacity:1"/></g><g clip-path="url(#K)"><path d="m5.688 254.29 145.609 145.605h4.476L5.688 249.809v4.48" style="stroke:none;fill-rule:nonzero;fill:#302f2f;fill-opacity:1"/></g><g clip-path="url(#L)"><path d="M132.816 399.895 5.687 272.765v4.477L128.34 399.895h4.476" style="stroke:none;fill-rule:nonzero;fill:#302f2f;fill-opacity:1"/></g><g clip-path="url(#M)"><g clip-path="url(#N)"><path d="M.441 586.672h148.743v116.805H.44Zm0 0" style="stroke:none;fill-rule:nonzero;fill:#3c3c3c;fill-opacity:1"/></g></g><path d="M.001 30.004h155.445" style="fill:none;stroke-width:60;stroke-linecap:butt;stroke-linejoin:miter;stroke:#fff;stroke-opacity:1;stroke-miterlimit:4" transform="matrix(0 .36372 -.36372 0 44.76 600.265)"/><path d="M.001 30.004h155.445" style="fill:none;stroke-width:60;stroke-linecap:butt;stroke-linejoin:miter;stroke:#fff;stroke-opacity:1;stroke-miterlimit:4" transform="matrix(0 .36372 -.36372 0 121.57 600.265)"/><path d="m.003 16.997 68.003.005" style="fill:none;stroke-width:34;stroke-linecap:butt;stroke-linejoin:miter;stroke:#edeced;stroke-opacity:1;stroke-miterlimit:4" transform="rotate(134.779 -70.806 366.214) scale(.36475)"/><path d="M-.002 16.999H67.5" style="fill:none;stroke-width:34;stroke-linecap:butt;stroke-linejoin:miter;stroke:#edeced;stroke-opacity:1;stroke-miterlimit:4" transform="rotate(45 -747.193 469.457) scale(.36475)"/><g style="fill:#3c3c3c;fill-opacity:.3216"><path d="M170.64 0h-47.937l-11.219-35.844H58.266L46.844 0H-.22L54.97-171.516h60.468ZM70.579-75.64h28.594a2300.535 2300.535 0 0 1-7.813-26.063 228.63 228.63 0 0 1-5.828-25.172h-.875a218.176 218.176 0 0 1-5.828 24.953c-2.418 8.137-5.168 16.899-8.25 26.281Zm0 0" style="stroke:none" transform="translate(163.944 717.64)"/></g><g style="fill:#3c3c3c;fill-opacity:.3216"><path d="M135.234 0H18.687v-171.516h48.157v129.297h68.39Zm0 0" style="stroke:none" transform="translate(334.582 717.64)"/></g><g style="fill:#3c3c3c;fill-opacity:.3216"><path d="M94.547 0H46.39v-132.156H3.297v-39.36h134.578v39.36H94.547Zm0 0" style="stroke:none" transform="translate(476.633 717.64)"/></g><g style="fill:#3c3c3c;fill-opacity:.3216"><path d="M144.906 0H18.687v-171.516h121.61v39.36h-74.11v25.515h62.672v38.47H66.187v28.812h78.72Zm0 0" style="stroke:none" transform="translate(617.805 717.64)"/></g><g style="fill:#3c3c3c;fill-opacity:.3216"><path d="M144.906 0H18.687v-171.516h121.61v39.36h-74.11v25.515h62.672v38.47H66.187v28.812h78.72Zm0 0" style="stroke:none" transform="translate(771.731 717.64)"/></g><g style="fill:#3c3c3c;fill-opacity:1"><path d="M170.64 0h-47.937l-11.219-35.844H58.266L46.844 0H-.22L54.97-171.516h60.468ZM70.579-75.64h28.594a2300.535 2300.535 0 0 1-7.813-26.063 228.63 228.63 0 0 1-5.828-25.172h-.875a218.176 218.176 0 0 1-5.828 24.953c-2.418 8.137-5.168 16.899-8.25 26.281Zm0 0" style="stroke:none" transform="translate(156.73 709.342)"/></g><g style="fill:#3c3c3c;fill-opacity:1"><path d="M135.234 0H18.687v-171.516h48.157v129.297h68.39Zm0 0" style="stroke:none" transform="translate(327.369 709.342)"/></g><g style="fill:#3c3c3c;fill-opacity:1"><path d="M94.547 0H46.39v-132.156H3.297v-39.36h134.578v39.36H94.547Zm0 0" style="stroke:none" transform="translate(469.42 709.342)"/></g><g style="fill:#3c3c3c;fill-opacity:1"><path d="M144.906 0H18.687v-171.516h121.61v39.36h-74.11v25.515h62.672v38.47H66.187v28.812h78.72Zm0 0" style="stroke:none" transform="translate(610.592 709.342)"/></g><g style="fill:#3c3c3c;fill-opacity:1"><path d="M144.906 0H18.687v-171.516h121.61v39.36h-74.11v25.515h62.672v38.47H66.187v28.812h78.72Zm0 0" style="stroke:none" transform="translate(764.518 709.342)"/></g><g style="fill:#3c3c3c;fill-opacity:.3216"><path d="M170.64 0h-47.937l-11.219-35.844H58.266L46.844 0H-.22L54.97-171.516h60.468ZM70.579-75.64h28.594a2300.535 2300.535 0 0 1-7.813-26.063 228.63 228.63 0 0 1-5.828-25.172h-.875a218.176 218.176 0 0 1-5.828 24.953c-2.418 8.137-5.168 16.899-8.25 26.281Zm0 0" style="stroke:none" transform="translate(1123.365 717.64)"/></g><g style="fill:#3c3c3c;fill-opacity:.3216"><path d="M135.234 0H18.687v-171.516h48.157v129.297h68.39Zm0 0" style="stroke:none" transform="translate(1294.002 717.64)"/></g><g style="fill:#3c3c3c;fill-opacity:.3216"><path d="M94.547 0H46.39v-132.156H3.297v-39.36h134.578v39.36H94.547Zm0 0" style="stroke:none" transform="translate(1436.054 717.64)"/></g><g style="fill:#3c3c3c;fill-opacity:.3216"><path d="M144.906 0H18.687v-171.516h121.61v39.36h-74.11v25.515h62.672v38.47H66.187v28.812h78.72Zm0 0" style="stroke:none" transform="translate(1577.226 717.64)"/></g><g style="fill:#3c3c3c;fill-opacity:.3216"><path d="M144.906 0H18.687v-171.516h121.61v39.36h-74.11v25.515h62.672v38.47H66.187v28.812h78.72Zm0 0" style="stroke:none" transform="translate(1731.152 717.64)"/></g><g style="fill:#3c3c3c;fill-opacity:1"><path d="M170.64 0h-47.937l-11.219-35.844H58.266L46.844 0H-.22L54.97-171.516h60.468ZM70.579-75.64h28.594a2300.535 2300.535 0 0 1-7.813-26.063 228.63 228.63 0 0 1-5.828-25.172h-.875a218.176 218.176 0 0 1-5.828 24.953c-2.418 8.137-5.168 16.899-8.25 26.281Zm0 0" style="stroke:none" transform="translate(1116.152 709.342)"/></g><g style="fill:#3c3c3c;fill-opacity:1"><path d="M135.234 0H18.687v-171.516h48.157v129.297h68.39Zm0 0" style="stroke:none" transform="translate(1286.79 709.342)"/></g><g style="fill:#3c3c3c;fill-opacity:1"><path d="M94.547 0H46.39v-132.156H3.297v-39.36h134.578v39.36H94.547Zm0 0" style="stroke:none" transform="translate(1428.84 709.342)"/></g><g style="fill:#3c3c3c;fill-opacity:1"><path d="M144.906 0H18.687v-171.516h121.61v39.36h-74.11v25.515h62.672v38.47H66.187v28.812h78.72Zm0 0" style="stroke:none" transform="translate(1570.013 709.342)"/></g><g style="fill:#3c3c3c;fill-opacity:1"><path d="M144.906 0H18.687v-171.516h121.61v39.36h-74.11v25.515h62.672v38.47H66.187v28.812h78.72Zm0 0" style="stroke:none" transform="translate(1723.939 709.342)"/></g><g clip-path="url(#O)"><g clip-path="url(#P)"><path d="M960 586.672h148.742v116.805H960Zm0 0" style="stroke:none;fill-rule:nonzero;fill:#3c3c3c;fill-opacity:1"/></g></g><path d="M.001 30.004h155.445" style="fill:none;stroke-width:60;stroke-linecap:butt;stroke-linejoin:miter;stroke:#fff;stroke-opacity:1;stroke-miterlimit:4" transform="matrix(0 .36372 -.36372 0 1004.32 600.265)"/><path d="M.001 30.004h155.445" style="fill:none;stroke-width:60;stroke-linecap:butt;stroke-linejoin:miter;stroke:#fff;stroke-opacity:1;stroke-miterlimit:4" transform="matrix(0 .36372 -.36372 0 1081.128 600.265)"/><path d="m.004 17.497 68.002.006" style="fill:none;stroke-width:35;stroke-linecap:butt;stroke-linejoin:miter;stroke:#edeced;stroke-opacity:1;stroke-miterlimit:4" transform="rotate(134.779 409.01 566.123) scale(.36475)"/><path d="M-.003 17.499H67.5" style="fill:none;stroke-width:35;stroke-linecap:butt;stroke-linejoin:miter;stroke:#edeced;stroke-opacity:1;stroke-miterlimit:4" transform="rotate(45 -267.199 1627.838) scale(.36475)"/><g clip-path="url(#Q)"><g clip-path="url(#R)"><path d="M327.926 795.188H552.82v224.894H327.926Zm0 0" style="stroke:none;fill-rule:nonzero;fill:#3c3c3c;fill-opacity:1"/></g></g><g clip-path="url(#S)"><path d="M385.59 847.02c-15.043 0-27.34 12.293-27.34 27.34v66.394c0 15.043 12.297 27.34 27.34 27.34h109.36c15.042 0 27.34-12.297 27.34-27.34v-66.395c0-15.047-12.298-27.34-27.34-27.34Zm0 11.714h109.36c8.753 0 15.62 6.868 15.62 15.625v66.395c0 8.758-6.867 15.621-15.62 15.621H385.59c-8.754 0-15.621-6.863-15.621-15.621v-66.395c0-8.757 6.867-15.625 15.62-15.625Zm41.191 17.578a5.855 5.855 0 0 0-1.168.079 5.974 5.974 0 0 0-1.129.312c-.367.14-.714.32-1.043.531-.332.211-.636.453-.921.727a5.899 5.899 0 0 0-1.317 1.922 5.991 5.991 0 0 0-.46 2.285v50.773c-.005.364.027.72.093 1.075a5.848 5.848 0 0 0 4.098 4.574c.343.105.699.176 1.054.21a5.717 5.717 0 0 0 3.418-.671l46.867-25.387c.465-.25.891-.558 1.274-.922a5.906 5.906 0 0 0 1.594-2.676 5.835 5.835 0 0 0 0-3.113 5.842 5.842 0 0 0-.618-1.445 5.804 5.804 0 0 0-2.25-2.156l-46.867-25.387a5.782 5.782 0 0 0-2.625-.73Zm5.676 15.743 28.684 15.5-28.684 15.562Zm0 0" style="stroke:none;fill-rule:nonzero;fill:#625f62;fill-opacity:1"/></g><g clip-path="url(#T)"><path d="m1294.387-34.906 104.172 104.172v-4.477l-99.696-99.695h-4.476" style="stroke:none;fill-rule:nonzero;fill:#302f2f;fill-opacity:1"/></g><g clip-path="url(#U)"><path d="M1398.559 87.746 1275.91-34.906h-4.476l127.125 127.129v-4.477" style="stroke:none;fill-rule:nonzero;fill:#302f2f;fill-opacity:1"/></g><g clip-path="url(#V)"><path d="m1248.477-34.906 150.082 150.086v-4.477l-145.606-145.61h-4.476" style="stroke:none;fill-rule:nonzero;fill:#302f2f;fill-opacity:1"/></g><g clip-path="url(#W)"><path d="M1398.559 133.66 1229.992-34.906h-4.472l173.039 173.039v-4.473" style="stroke:none;fill-rule:nonzero;fill:#302f2f;fill-opacity:1"/></g><g clip-path="url(#X)"><path d="m1202.563-34.906 195.996 195.996v-4.477l-191.52-191.52h-4.476" style="stroke:none;fill-rule:nonzero;fill:#302f2f;fill-opacity:1"/></g><g clip-path="url(#Y)"><path d="m1398.559 179.574-214.477-214.48h-4.477l218.954 218.953v-4.473" style="stroke:none;fill-rule:nonzero;fill:#302f2f;fill-opacity:1"/></g><g clip-path="url(#Z)"><path d="m1156.652-34.906 241.907 241.914v-4.48L1161.125-34.907h-4.473" style="stroke:none;fill-rule:nonzero;fill:#302f2f;fill-opacity:1"/></g><g clip-path="url(#aa)"><path d="m1398.559 225.484-260.391-260.39h-4.477L1398.56 229.96v-4.477" style="stroke:none;fill-rule:nonzero;fill:#302f2f;fill-opacity:1"/></g><g clip-path="url(#ab)"><path d="m1110.738-34.906 287.82 287.82v-4.473L1115.212-34.906h-4.473" style="stroke:none;fill-rule:nonzero;fill:#302f2f;fill-opacity:1"/></g><g clip-path="url(#ac)"><path d="M1398.559 271.398 1092.258-34.906h-4.477l310.778 310.781v-4.477" style="stroke:none;fill-rule:nonzero;fill:#302f2f;fill-opacity:1"/></g><g clip-path="url(#ad)"><path d="M1398.559 294.352 1069.3-34.906h-4.477l333.735 333.738v-4.48" style="stroke:none;fill-rule:nonzero;fill:#302f2f;fill-opacity:1"/></g><g clip-path="url(#ae)"><path d="M1398.559 317.309 1046.344-34.906h-4.477l356.692 356.691v-4.476" style="stroke:none;fill-rule:nonzero;fill:#302f2f;fill-opacity:1"/></g><g clip-path="url(#af)"><path d="M1398.559 340.266 1023.387-34.906h-4.477l379.649 379.648v-4.476" style="stroke:none;fill-rule:nonzero;fill:#302f2f;fill-opacity:1"/></g><g clip-path="url(#ag)"><path d="m1398.559 363.223-398.125-398.13h-4.477L1398.559 367.7v-4.476" style="stroke:none;fill-rule:nonzero;fill:#302f2f;fill-opacity:1"/></g><g clip-path="url(#ah)"><path d="M1398.559 386.18 977.477-34.906H973l425.559 425.562v-4.476" style="stroke:none;fill-rule:nonzero;fill:#302f2f;fill-opacity:1"/></g><g clip-path="url(#ai)"><path d="M1389.32 399.895 963.758-25.668v4.48l421.086 421.083h4.476" style="stroke:none;fill-rule:nonzero;fill:#302f2f;fill-opacity:1"/></g><g clip-path="url(#aj)"><path d="M1366.363 399.895 963.758-2.711v4.477l398.129 398.129h4.476" style="stroke:none;fill-rule:nonzero;fill:#302f2f;fill-opacity:1"/></g><g clip-path="url(#ak)"><path d="M1343.406 399.895 963.758 20.246v4.477l375.172 375.172h4.476" style="stroke:none;fill-rule:nonzero;fill:#302f2f;fill-opacity:1"/></g><g clip-path="url(#al)"><path d="M1320.453 399.895 963.758 43.203v4.477l352.219 352.215h4.476" style="stroke:none;fill-rule:nonzero;fill:#302f2f;fill-opacity:1"/></g><g clip-path="url(#am)"><path d="M1297.496 399.895 963.758 66.156v4.48l329.262 329.259h4.476" style="stroke:none;fill-rule:nonzero;fill:#302f2f;fill-opacity:1"/></g><g clip-path="url(#an)"><path d="M1274.54 399.895 963.757 89.113v4.477l306.304 306.305h4.477" style="stroke:none;fill-rule:nonzero;fill:#302f2f;fill-opacity:1"/></g><g clip-path="url(#ao)"><path d="m963.758 116.547 283.347 283.348h4.477l-287.824-287.82v4.472" style="stroke:none;fill-rule:nonzero;fill:#302f2f;fill-opacity:1"/></g><g clip-path="url(#ap)"><path d="M1228.629 399.895 963.758 135.027v4.477l260.394 260.39h4.477" style="stroke:none;fill-rule:nonzero;fill:#302f2f;fill-opacity:1"/></g><g clip-path="url(#aq)"><path d="m963.758 162.46 237.437 237.435h4.477l-241.914-241.91v4.476" style="stroke:none;fill-rule:nonzero;fill:#302f2f;fill-opacity:1"/></g><g clip-path="url(#ar)"><path d="M1182.71 399.895 963.759 180.94v4.473l214.48 214.48h4.473" style="stroke:none;fill-rule:nonzero;fill:#302f2f;fill-opacity:1"/></g><g clip-path="url(#as)"><path d="m963.758 208.375 191.52 191.52h4.48l-196-195.997v4.477" style="stroke:none;fill-rule:nonzero;fill:#302f2f;fill-opacity:1"/></g><g clip-path="url(#at)"><path d="m1136.8 399.895-173.042-173.04v4.473l168.57 168.567h4.473" style="stroke:none;fill-rule:nonzero;fill:#302f2f;fill-opacity:1"/></g><g clip-path="url(#au)"><path d="m963.758 254.29 145.61 145.605h4.476L963.758 249.809v4.48" style="stroke:none;fill-rule:nonzero;fill:#302f2f;fill-opacity:1"/></g><g clip-path="url(#av)"><path d="m1090.887 399.895-127.13-127.13v4.477l122.653 122.653h4.477" style="stroke:none;fill-rule:nonzero;fill:#302f2f;fill-opacity:1"/></g><g clip-path="url(#aw)"><g clip-path="url(#ax)"><path d="M982.89 795.188h224.9v224.894h-224.9Zm0 0" style="stroke:none;fill-rule:nonzero;fill:#3c3c3c;fill-opacity:1"/></g></g><g clip-path="url(#ay)"><path d="M655.406 795.188h224.899v224.894H655.406Zm0 0" style="stroke:none;fill-rule:nonzero;fill:#3c3c3c;fill-opacity:1"/></g><g clip-path="url(#az)"><g clip-path="url(#aA)"><path d="M.441 795.188h224.895v224.894H.44Zm0 0" style="stroke:none;fill-rule:nonzero;fill:#3c3c3c;fill-opacity:1"/></g></g><g clip-path="url(#aB)"><g clip-path="url(#aC)"><path d="M1310.375 795.188h224.895v224.894h-224.895Zm0 0" style="stroke:none;fill-rule:nonzero;fill:#3c3c3c;fill-opacity:1"/></g></g><g clip-path="url(#aD)"><g clip-path="url(#aE)"><path d="M1637.855 795.188h224.899v224.894h-224.899Zm0 0" style="stroke:none;fill-rule:nonzero;fill:#3c3c3c;fill-opacity:1"/></g></g><g clip-path="url(#aF)"><path d="M28.73 876.367v84.477a14.076 14.076 0 0 0 6.258 11.707c.77.511 1.578.949 2.434 1.3a14.106 14.106 0 0 0 5.387 1.07h16.64l9.215 14.595c.309.48.711.855 1.211 1.129.5.273 1.035.41 1.605.406.614.047 1.2-.067 1.75-.34.551-.277.993-.676 1.32-1.195l9.216-14.594h48.64l9.215 14.594c.332.52.774.918 1.324 1.195a3.3 3.3 0 0 0 1.75.34c1.278 0 2.301-.512 2.817-1.535l9.215-14.594h18.43c.925 0 1.84-.09 2.75-.27.905-.18 1.784-.445 2.64-.8a14.141 14.141 0 0 0 4.566-3.051 14.28 14.28 0 0 0 1.75-2.133c.516-.77.95-1.582 1.301-2.438.356-.851.621-1.734.8-2.64.184-.906.274-1.82.274-2.746v-84.477a14.073 14.073 0 0 0-.316-2.71 13.967 13.967 0 0 0-2.145-4.989 14.039 14.039 0 0 0-3.875-3.805 13.975 13.975 0 0 0-5.027-2.054 13.825 13.825 0 0 0-2.719-.266h-53.5l30.973-30.977-7.68-7.68-35.84 35.84-36.347-35.84-7.68 7.68 30.719 30.723H43.066c-.949-.02-1.886.059-2.816.23-.93.172-1.836.434-2.71.79a13.987 13.987 0 0 0-4.688 3.101 13.908 13.908 0 0 0-1.786 2.188 14.005 14.005 0 0 0-2.105 5.21c-.172.93-.25 1.868-.23 2.813Zm0 0" style="stroke:none;fill-rule:nonzero;fill:#000;fill-opacity:1"/></g><g clip-path="url(#aG)"><path d="m704.875 830.469-9.691 28.937V965.5h38.757v19.293h19.375L772.7 965.5h29.067l38.761-41.086V830.47Zm125.96 86.804-27.128 28.938h-34.36l-20.87 15.113v-15.113h-33.914V840.117h116.273Zm0 0" style="stroke:none;fill-rule:nonzero;fill:#000;fill-opacity:1"/></g><path d="M772.7 869.05h-9.692v38.583h9.691ZM801.766 869.05h-9.688v38.583h9.688Zm0 0" style="stroke:none;fill-rule:nonzero;fill:#000;fill-opacity:1"/><g clip-path="url(#aH)"><path d="m1432.723 825.055 29.613-.11c.324 16.926 8.476 27.317 17.594 33.742 0 .11.11.11.11.11 6.437 4.82 14.054 7.285 23.605 7.496v29.566c-16.848 0-30.793-5.464-41.31-13.285l-.108 61.703c-.211 16.707-7.399 29.133-16.09 37.38-.75.75-1.5 1.5-2.36 2.144-11.16 9.426-22.101 13.816-37.125 13.71-14.804-.214-25.96-5.784-35.402-13.925-7.082-6.106-12.77-14.031-15.988-24.957-6.973-23.992 1.824-47.774 21.672-61.379.43-.32.968-.64 1.504-.965 16.093-10.066 35.19-12.316 54.18-2.785.105 13.926 0 28.816 0 42.633-4.505-16.817-26.821-25.707-41.415-13.067l-.535.536c-5.793 4.925-8.367 12.64-7.938 20.886 1.07 14.785 13.301 23.996 26.606 23.352h.11c12.87-1.285 23.495-11.781 23.171-25.922Zm0 0" style="stroke:none;fill-rule:evenodd;fill:#625f62;fill-opacity:1"/></g><path d="M1407.406 901.719c22.989 0 41.61 18.68 41.61 41.617 0 22.934-18.621 41.484-41.61 41.484-22.984 0-41.605-18.55-41.605-41.484 0-22.938 18.62-41.617 41.605-41.617Zm0 20.87c11.43 0 20.805 9.278 20.805 20.747 0 11.465-9.375 20.742-20.805 20.742-11.426 0-20.804-9.277-20.804-20.742 0-11.469 9.378-20.746 20.804-20.746Zm0 0" style="stroke:none;fill-rule:evenodd;fill:#625f62;fill-opacity:1"/><g clip-path="url(#aI)"><path d="m1426.3 817.512 29.614-.11c.32 16.926 8.473 27.317 17.594 33.743 0 .109.11.109.11.109 6.437 4.82 14.054 7.285 23.6 7.496v29.566c-16.843 0-30.788-5.464-41.304-13.285l-.11 61.7c-.21 16.71-7.398 29.136-16.093 37.382-.75.75-1.5 1.5-2.36 2.145-11.156 9.426-22.101 13.816-37.12 13.71-14.805-.214-25.965-5.784-35.403-13.925-7.082-6.106-12.77-14.031-15.988-24.961-6.973-23.988 1.824-47.77 21.672-61.375.43-.32.965-.64 1.504-.965 16.093-10.066 35.191-12.316 54.18-2.785.105 13.926 0 28.816 0 42.633-4.508-16.817-26.821-25.707-41.415-13.067-.105.106-.43.426-.535.536-5.793 4.925-8.371 12.64-7.941 20.886 1.074 14.785 13.304 23.992 26.61 23.352h.105c12.875-1.285 23.496-11.781 23.175-25.922Zm0 0" style="stroke:none;fill-rule:evenodd;fill:#302f2f;fill-opacity:1"/></g><g clip-path="url(#aJ)"><g clip-path="url(#aK)" clip-rule="evenodd"><path d="M1400.98 894.27c22.989 0 41.61 18.683 41.61 41.617 0 22.937-18.621 41.488-41.61 41.488-22.988 0-41.609-18.55-41.609-41.488 0-22.934 18.621-41.617 41.61-41.617Zm0 20.875c11.43 0 20.805 9.277 20.805 20.742 0 11.468-9.375 20.746-20.805 20.746s-20.804-9.278-20.804-20.746c0-11.465 9.375-20.742 20.804-20.742Zm0 0" style="stroke:none;fill-rule:evenodd;fill:#302f2f;fill-opacity:1"/></g></g><g clip-path="url(#aL)"><g clip-path="url(#aM)" clip-rule="evenodd"><path d="m1432.715 825.055 29.613-.11c.32 16.926 8.473 27.317 17.594 33.742 0 .11.11.11.11.11 6.437 4.82 14.054 7.285 23.6 7.496v29.566c-16.843 0-30.792-5.464-41.304-13.285l-.11 61.703c-.214 16.707-7.402 29.133-16.093 37.38-.75.75-1.5 1.5-2.36 2.144-11.156 9.426-22.1 13.816-37.12 13.71-14.805-.214-25.965-5.784-35.407-13.925-7.078-6.106-12.765-14.031-15.984-24.957-6.973-23.992 1.824-47.774 21.672-61.379.43-.32.965-.64 1.504-.965 16.09-10.066 35.187-12.316 54.18-2.785.105 13.926 0 28.816 0 42.633-4.508-16.817-26.825-25.707-41.415-13.067-.105.106-.43.426-.535.536-5.793 4.925-8.37 12.64-7.941 20.886 1.074 14.785 13.304 23.996 26.61 23.352h.105c12.875-1.285 23.496-11.781 23.175-25.922.106-38.992.106-77.98.106-116.863Zm0 0" style="stroke:none;fill-rule:evenodd;fill:#000;fill-opacity:1"/></g></g><g clip-path="url(#aN)"><path d="m1107.242 897.809 46.586-54.157h-11.039l-40.453 47.024-32.309-47.024h-37.265l48.86 71.106-48.86 56.789h11.039l42.722-49.656 34.118 49.656h37.265l-50.668-73.738Zm-15.125 17.574-4.949-7.078-39.387-56.34h16.957l31.785 45.469 4.954 7.078 41.316 59.101h-16.957l-33.719-48.226Zm0 0" style="stroke:none;fill-rule:nonzero;fill:#625f62;fill-opacity:1"/></g><g clip-path="url(#aO)"><path d="M1786.547 978.059h-72.11a34.28 34.28 0 0 1-34.37-34.371v-72.11a34.282 34.282 0 0 1 34.37-34.371h71.735a34.285 34.285 0 0 1 34.375 34.371v71.735a34.286 34.286 0 0 1-34.375 34.375Zm-72.11-129.645c-12.703 0-23.164 10.465-23.164 23.164v71.735c0 12.703 10.461 23.164 23.165 23.164h71.734c12.703 0 23.164-10.461 23.164-23.164v-71.735c0-12.7-10.461-23.164-23.164-23.164Zm0 0" style="stroke:none;fill-rule:nonzero;fill:#625f62;fill-opacity:1"/></g><path d="M1750.68 953.027c-24.66 0-44.461-19.8-44.461-44.46a44.326 44.326 0 0 1 44.46-44.458c24.657 0 44.462 19.801 44.462 44.457a44.33 44.33 0 0 1-44.461 44.461Zm0-78.086c-18.68 0-33.625 14.946-33.625 33.625 0 18.684 14.945 33.63 33.625 33.63s33.625-14.946 33.625-33.63c0-18.68-14.946-33.625-33.625-33.625Zm0 0" style="stroke:none;fill-rule:nonzero;fill:#625f62;fill-opacity:1"/><path d="M1750.68 928.742a20.09 20.09 0 0 1-20.176-20.176 20.088 20.088 0 0 1 20.176-20.171 20.09 20.09 0 0 1 20.175 20.171 20.092 20.092 0 0 1-20.175 20.176Zm0-29.14c-4.86 0-8.97 4.109-8.97 8.964 0 4.86 4.11 8.97 8.97 8.97 4.855 0 8.965-4.11 8.965-8.97 0-4.855-4.11-8.964-8.965-8.964ZM1798.875 866.723c0 .492-.047.976-.145 1.457a7.339 7.339 0 0 1-1.113 2.695 7.59 7.59 0 0 1-.93 1.133 7.59 7.59 0 0 1-1.132.93 7.587 7.587 0 0 1-2.696 1.113c-.48.097-.964.144-1.457.144-.488 0-.976-.047-1.457-.144a7.35 7.35 0 0 1-1.402-.426 7.737 7.737 0 0 1-1.293-.688 7.366 7.366 0 0 1-1.129-.93 7.48 7.48 0 0 1-2.047-6.742 7.48 7.48 0 0 1 5.871-5.871c.48-.097.97-.144 1.457-.144.493 0 .977.047 1.457.145.485.093.95.238 1.403.425a7.564 7.564 0 0 1 2.426 1.617c.347.348.656.727.93 1.133.273.41.5.84.69 1.293.188.453.329.922.422 1.403.098.48.145.964.145 1.457Zm0 0" style="stroke:none;fill-rule:nonzero;fill:#625f62;fill-opacity:1"/><g style="fill:#3c3c3c;fill-opacity:1"><path d="M16.672 0H8.187v-23.313H.579v-6.937h23.735v6.938h-7.641Zm0 0" style="stroke:none" transform="translate(1.94 413.18)"/></g><g style="fill:#3c3c3c;fill-opacity:1"><path d="M12.094 0h-8.61v-30.25h8.61Zm0 0" style="stroke:none" transform="translate(26.84 413.18)"/></g><g style="fill:#3c3c3c;fill-opacity:1"><path d="M34.125 0h-7.64v-9c0-.594.019-1.426.062-2.5.039-1.07.094-2.21.156-3.422.063-1.219.117-2.375.172-3.469.05-1.101.094-2.004.125-2.703.04-.695.063-1.047.063-1.047h-.266l-.094.72c-.062.48-.148 1.093-.25 1.843-.105.75-.219 1.547-.344 2.39-.117.836-.23 1.633-.343 2.391a32.084 32.084 0 0 1-.328 1.844L22.797 0h-8.485l-2.984-12.953c-.055-.258-.14-.695-.265-1.313a48.262 48.262 0 0 1-.344-2.14c-.117-.801-.242-1.594-.375-2.375-.125-.79-.23-1.489-.313-2.094a42.433 42.433 0 0 1-.14-1.266h-.235l.047 1.032c.04.68.094 1.554.156 2.625.07 1.074.133 2.218.188 3.437.05 1.219.094 2.383.125 3.485.039 1.093.062 1.992.062 2.687V0H3.297v-30.25h11.672l3.11 16.172c.124.574.218 1.25.28 2.031.063.774.102 1.45.125 2.031l.047.86h.157s.007-.297.03-.89c.032-.595.071-1.274.126-2.048.05-.781.129-1.441.234-1.984l2.828-16.172h12.219Zm0 0" style="stroke:none" transform="translate(42.43 413.18)"/></g><g style="fill:#3c3c3c;fill-opacity:1"><path d="M25.563 0H3.297v-30.25H24.75v6.938H11.672v4.5h11.047v6.796H11.672v5.079h13.89Zm0 0" style="stroke:none" transform="translate(79.856 413.18)"/></g><g style="fill:#3c3c3c;fill-opacity:1"><path d="M11.75 0H3.297v-30.25h20.672v6.938H11.75v5.828h10.594v6.78H11.75Zm0 0" style="stroke:none" transform="translate(120.384 413.18)"/></g><g style="fill:#3c3c3c;fill-opacity:1"><path d="M16.016.89c-2.793 0-5.262-.624-7.407-1.874C6.461-2.242 4.781-4.07 3.563-6.47 2.351-8.875 1.75-11.785 1.75-15.203c0-3.332.602-6.188 1.813-8.563 1.218-2.382 2.898-4.207 5.046-5.468 2.145-1.27 4.614-1.907 7.407-1.907 2.82 0 5.289.641 7.406 1.922 2.125 1.282 3.785 3.11 4.984 5.485 1.196 2.375 1.797 5.218 1.797 8.53 0 3.419-.601 6.329-1.797 8.735-1.199 2.399-2.86 4.227-4.984 5.485C21.305.266 18.836.89 16.016.89Zm0-7.171c.957 0 1.851-.328 2.687-.985.844-.664 1.531-1.656 2.063-2.968.53-1.32.797-2.977.797-4.97 0-3-.54-5.206-1.61-6.624-1.074-1.426-2.387-2.14-3.937-2.14-.93 0-1.828.32-2.703.952-.868.637-1.575 1.602-2.126 2.891-.554 1.293-.828 2.934-.828 4.922 0 2.969.551 5.2 1.657 6.687 1.113 1.493 2.445 2.235 4 2.235Zm0 0" style="stroke:none" transform="translate(145.748 413.18)"/></g><g style="fill:#3c3c3c;fill-opacity:1"><path d="M28.578 0h-9.922L13.97-11.172h-2.453V0h-8.22v-30.25h13.345c1.988 0 3.722.398 5.203 1.188 1.488.78 2.644 1.859 3.468 3.234.833 1.375 1.25 2.965 1.25 4.765 0 2.282-.402 4.09-1.203 5.422-.804 1.325-2.043 2.325-3.718 3ZM11.563-17.688h3.515c.906 0 1.629-.265 2.172-.796.55-.532.828-1.243.828-2.141 0-.832-.265-1.488-.797-1.969-.531-.476-1.265-.718-2.203-.718h-3.515Zm0 0" style="stroke:none" transform="translate(177.705 413.18)"/></g><g style="fill:#3c3c3c;fill-opacity:1"><path d="M30.094 0H21.64l-1.985-6.328h-9.375L8.266 0H-.031l9.719-30.25h10.671Zm-17.64-13.344h5.03c-.492-1.601-.949-3.133-1.375-4.594a39.089 39.089 0 0 1-1.03-4.437h-.142a39.266 39.266 0 0 1-1.03 4.406 214.7 214.7 0 0 1-1.454 4.625Zm0 0" style="stroke:none" transform="translate(220.172 413.18)"/></g><g style="fill:#3c3c3c;fill-opacity:1"><path d="M15.781 0H3.297v-30.25H15.78c2.688 0 5.102.61 7.25 1.828 2.145 1.211 3.836 2.938 5.078 5.188 1.25 2.25 1.875 4.953 1.875 8.109 0 3.262-.625 6.016-1.875 8.266-1.242 2.25-2.93 3.96-5.062 5.125C20.922-.578 18.5 0 15.78 0ZM11.75-7.094h3.266c1.187 0 2.27-.273 3.25-.828.976-.562 1.765-1.43 2.359-2.61.602-1.175.906-2.706.906-4.593 0-1.883-.304-3.414-.906-4.594-.594-1.176-1.39-2.039-2.39-2.593a6.411 6.411 0 0 0-3.22-.844H11.75Zm0 0" style="stroke:none" transform="translate(263.648 413.18)"/></g><g style="fill:#3c3c3c;fill-opacity:1"><path d="M12.094 0h-8.61v-30.25h8.61Zm0 0" style="stroke:none" transform="translate(295.373 413.18)"/></g><g style="fill:#3c3c3c;fill-opacity:1"><path d="M21.531-7.531v-3.219h-5.906v-6.969h13.078v13.64c-1.043 1.5-2.523 2.704-4.437 3.61C22.359.437 20.02.891 17.25.891c-3.25 0-6.04-.668-8.36-2-2.312-1.332-4.085-3.207-5.312-5.625-1.219-2.414-1.828-5.239-1.828-8.47 0-3.124.602-5.878 1.813-8.265 1.218-2.394 2.914-4.27 5.093-5.625 2.188-1.363 4.719-2.047 7.594-2.047 2.914 0 5.426.524 7.531 1.563 2.114 1.031 3.61 2.492 4.485 4.375l-5.078 4.765c-.649-1.164-1.481-2.062-2.5-2.687-1.024-.633-2.188-.953-3.5-.953-2.024 0-3.653.773-4.891 2.312-1.242 1.532-1.86 3.72-1.86 6.563 0 1.887.297 3.523.891 4.906.594 1.387 1.406 2.453 2.438 3.203a5.776 5.776 0 0 0 3.484 1.125c1.113 0 2.023-.156 2.734-.468.72-.313 1.235-.676 1.547-1.094Zm0 0" style="stroke:none" transform="translate(310.963 413.18)"/></g><g style="fill:#3c3c3c;fill-opacity:1"><path d="M12.094 0h-8.61v-30.25h8.61Zm0 0" style="stroke:none" transform="translate(341.835 413.18)"/></g><g style="fill:#3c3c3c;fill-opacity:1"><path d="M16.672 0H8.187v-23.313H.579v-6.937h23.735v6.938h-7.641Zm0 0" style="stroke:none" transform="translate(357.425 413.18)"/></g><g style="fill:#3c3c3c;fill-opacity:1"><path d="M30.094 0H21.64l-1.985-6.328h-9.375L8.266 0H-.031l9.719-30.25h10.671Zm-17.64-13.344h5.03c-.492-1.601-.949-3.133-1.375-4.594a39.089 39.089 0 0 1-1.03-4.437h-.142a39.266 39.266 0 0 1-1.03 4.406 214.7 214.7 0 0 1-1.454 4.625Zm0 0" style="stroke:none" transform="translate(382.324 413.18)"/></g><g style="fill:#3c3c3c;fill-opacity:1"><path d="M23.844 0H3.297v-30.25h8.5v22.797h12.047Zm0 0" style="stroke:none" transform="translate(412.42 413.18)"/></g><g style="fill:#3c3c3c;fill-opacity:1"><path d="M28.578 0h-9.922L13.97-11.172h-2.453V0h-8.22v-30.25h13.345c1.988 0 3.722.398 5.203 1.188 1.488.78 2.644 1.859 3.468 3.234.833 1.375 1.25 2.965 1.25 4.765 0 2.282-.402 4.09-1.203 5.422-.804 1.325-2.043 2.325-3.718 3ZM11.563-17.688h3.515c.906 0 1.629-.265 2.172-.796.55-.532.828-1.243.828-2.141 0-.832-.265-1.488-.797-1.969-.531-.476-1.265-.718-2.203-.718h-3.515Zm0 0" style="stroke:none" transform="translate(1.94 467.155)"/></g><g style="fill:#3c3c3c;fill-opacity:1"><path d="M25.563 0H3.297v-30.25H24.75v6.938H11.672v4.5h11.047v6.796H11.672v5.079h13.89Zm0 0" style="stroke:none" transform="translate(32.734 467.155)"/></g><g style="fill:#3c3c3c;fill-opacity:1"><path d="M12.094 0h-8.61v-30.25h8.61Zm0 0" style="stroke:none" transform="translate(61.59 467.155)"/></g><g style="fill:#3c3c3c;fill-opacity:1"><path d="M28.656 0H18.188l-4.891-11.516a36.426 36.426 0 0 1-1.047-2.796 126.928 126.928 0 0 1-1-3.188c-.313-1.05-.563-1.926-.75-2.625-.18-.695-.266-1.047-.266-1.047l-.109.031s.035.352.11 1.047c.081.7.175 1.621.28 2.766.102 1.137.204 2.383.297 3.734.102 1.356.192 2.7.266 4.031.082 1.336.125 2.532.125 3.594V0H3.297v-30.25h10.125l4.922 11.328c.437.961.863 1.992 1.281 3.094a57.51 57.51 0 0 1 1.078 3.094c.313.968.555 1.757.735 2.359l.28.906.188.047s-.043-.36-.125-1.078c-.074-.727-.168-1.66-.281-2.797a252.55 252.55 0 0 1-.344-3.656c-.117-1.29-.215-2.531-.297-3.719a48.71 48.71 0 0 1-.109-2.953v-6.625h7.906Zm0 0" style="stroke:none" transform="translate(78.887 467.155)"/></g><g style="fill:#3c3c3c;fill-opacity:1"><path d="m23.266-10.36 4.968 5.047c-.96 1.918-2.476 3.434-4.547 4.547C21.625.336 19.302.891 16.72.891c-2.95 0-5.547-.657-7.797-1.97-2.25-1.32-4.012-3.19-5.281-5.609C2.379-9.101 1.75-11.94 1.75-15.203c0-3.227.629-6.035 1.89-8.422 1.27-2.395 3.032-4.242 5.282-5.547 2.25-1.312 4.848-1.969 7.797-1.969 1.832 0 3.515.266 5.047.797 1.539.532 2.859 1.258 3.953 2.172 1.101.918 1.898 1.961 2.39 3.125l-5.187 4.766c-.23-.594-.649-1.145-1.25-1.657a7.75 7.75 0 0 0-2-1.265c-.73-.32-1.461-.485-2.188-.485-1.242 0-2.367.325-3.375.97-1 .648-1.804 1.593-2.406 2.843-.594 1.25-.89 2.809-.89 4.672 0 2.793.624 4.93 1.874 6.406 1.258 1.469 2.86 2.203 4.797 2.203.727 0 1.473-.16 2.235-.484a7.917 7.917 0 0 0 2.11-1.328 5.476 5.476 0 0 0 1.437-1.953Zm0 0" style="stroke:none" transform="translate(112.55 467.155)"/></g><g style="fill:#3c3c3c;fill-opacity:1"><path d="M30.094 0H21.64l-1.985-6.328h-9.375L8.266 0H-.031l9.719-30.25h10.671Zm-17.64-13.344h5.03c-.492-1.601-.949-3.133-1.375-4.594a39.089 39.089 0 0 1-1.03-4.437h-.142a39.266 39.266 0 0 1-1.03 4.406 214.7 214.7 0 0 1-1.454 4.625Zm0 0" style="stroke:none" transform="translate(143.112 467.155)"/></g><g style="fill:#3c3c3c;fill-opacity:1"><path d="M28.578 0h-9.922L13.97-11.172h-2.453V0h-8.22v-30.25h13.345c1.988 0 3.722.398 5.203 1.188 1.488.78 2.644 1.859 3.468 3.234.833 1.375 1.25 2.965 1.25 4.765 0 2.282-.402 4.09-1.203 5.422-.804 1.325-2.043 2.325-3.718 3ZM11.563-17.688h3.515c.906 0 1.629-.265 2.172-.796.55-.532.828-1.243.828-2.141 0-.832-.265-1.488-.797-1.969-.531-.476-1.265-.718-2.203-.718h-3.515Zm0 0" style="stroke:none" transform="translate(174.914 467.155)"/></g><g style="fill:#3c3c3c;fill-opacity:1"><path d="M28.656 0H18.188l-4.891-11.516a36.426 36.426 0 0 1-1.047-2.796 126.928 126.928 0 0 1-1-3.188c-.313-1.05-.563-1.926-.75-2.625-.18-.695-.266-1.047-.266-1.047l-.109.031s.035.352.11 1.047c.081.7.175 1.621.28 2.766.102 1.137.204 2.383.297 3.734.102 1.356.192 2.7.266 4.031.082 1.336.125 2.532.125 3.594V0H3.297v-30.25h10.125l4.922 11.328c.437.961.863 1.992 1.281 3.094a57.51 57.51 0 0 1 1.078 3.094c.313.968.555 1.757.735 2.359l.28.906.188.047s-.043-.36-.125-1.078c-.074-.727-.168-1.66-.281-2.797a252.55 252.55 0 0 1-.344-3.656c-.117-1.29-.215-2.531-.297-3.719a48.71 48.71 0 0 1-.109-2.953v-6.625h7.906Zm0 0" style="stroke:none" transform="translate(205.708 467.155)"/></g><g style="fill:#3c3c3c;fill-opacity:1"><path d="M30.094 0H21.64l-1.985-6.328h-9.375L8.266 0H-.031l9.719-30.25h10.671Zm-17.64-13.344h5.03c-.492-1.601-.949-3.133-1.375-4.594a39.089 39.089 0 0 1-1.03-4.437h-.142a39.266 39.266 0 0 1-1.03 4.406 214.7 214.7 0 0 1-1.454 4.625Zm0 0" style="stroke:none" transform="translate(239.372 467.155)"/></g><g style="fill:#3c3c3c;fill-opacity:1"><path d="M16.672 0H8.187v-23.313H.579v-6.937h23.735v6.938h-7.641Zm0 0" style="stroke:none" transform="translate(271.174 467.155)"/></g><g style="fill:#3c3c3c;fill-opacity:1"><path d="M12.094 0h-8.61v-30.25h8.61Zm0 0" style="stroke:none" transform="translate(297.78 467.155)"/></g><g style="fill:#3c3c3c;fill-opacity:1"><path d="M16.016.89c-2.793 0-5.262-.624-7.407-1.874C6.461-2.242 4.781-4.07 3.563-6.47 2.351-8.875 1.75-11.785 1.75-15.203c0-3.332.602-6.188 1.813-8.563 1.218-2.382 2.898-4.207 5.046-5.468 2.145-1.27 4.614-1.907 7.407-1.907 2.82 0 5.289.641 7.406 1.922 2.125 1.282 3.785 3.11 4.984 5.485 1.196 2.375 1.797 5.218 1.797 8.53 0 3.419-.601 6.329-1.797 8.735-1.199 2.399-2.86 4.227-4.984 5.485C21.305.266 18.836.89 16.016.89Zm0-7.171c.957 0 1.851-.328 2.687-.985.844-.664 1.531-1.656 2.063-2.968.53-1.32.797-2.977.797-4.97 0-3-.54-5.206-1.61-6.624-1.074-1.426-2.387-2.14-3.937-2.14-.93 0-1.828.32-2.703.952-.868.637-1.575 1.602-2.126 2.891-.554 1.293-.828 2.934-.828 4.922 0 2.969.551 5.2 1.657 6.687 1.113 1.493 2.445 2.235 4 2.235Zm0 0" style="stroke:none" transform="translate(315.077 467.155)"/></g><g style="fill:#3c3c3c;fill-opacity:1"><path d="M28.656 0H18.188l-4.891-11.516a36.426 36.426 0 0 1-1.047-2.796 126.928 126.928 0 0 1-1-3.188c-.313-1.05-.563-1.926-.75-2.625-.18-.695-.266-1.047-.266-1.047l-.109.031s.035.352.11 1.047c.081.7.175 1.621.28 2.766.102 1.137.204 2.383.297 3.734.102 1.356.192 2.7.266 4.031.082 1.336.125 2.532.125 3.594V0H3.297v-30.25h10.125l4.922 11.328c.437.961.863 1.992 1.281 3.094a57.51 57.51 0 0 1 1.078 3.094c.313.968.555 1.757.735 2.359l.28.906.188.047s-.043-.36-.125-1.078c-.074-.727-.168-1.66-.281-2.797a252.55 252.55 0 0 1-.344-3.656c-.117-1.29-.215-2.531-.297-3.719a48.71 48.71 0 0 1-.109-2.953v-6.625h7.906Zm0 0" style="stroke:none" transform="translate(348.74 467.155)"/></g><g style="fill:#3c3c3c;fill-opacity:1"><path d="M25.031 0H3.234v-29.625h21v6.797H11.437v4.406h10.829v6.64H11.438v4.985H25.03Zm0 0" style="stroke:none" transform="translate(487.672 414.594)"/></g><g style="fill:#3c3c3c;fill-opacity:1"><path d="M11.844 0H3.422v-29.625h8.422Zm0 0" style="stroke:none" transform="translate(514.254 414.594)"/></g><g style="fill:#3c3c3c;fill-opacity:1"><path d="M13.906-11.203 9.61-12.766C7.41-13.578 5.707-14.64 4.5-15.953c-1.2-1.313-1.797-3.125-1.797-5.438 0-1.664.426-3.187 1.281-4.562.864-1.383 2.114-2.488 3.75-3.313 1.633-.82 3.614-1.234 5.938-1.234 5.52 0 9.18 1.965 10.984 5.89l-5.89 4.22a5.15 5.15 0 0 0-1.97-2.47c-.898-.613-1.823-.921-2.78-.921-1.344 0-2.246.18-2.704.531-.449.355-.671.824-.671 1.406 0 .836.859 1.543 2.578 2.125l4.906 1.594c2.145.71 3.89 1.793 5.234 3.25 1.344 1.46 2.016 3.355 2.016 5.688 0 3.21-1.016 5.687-3.047 7.437C20.305 0 17.41.875 13.641.875c-3.149 0-5.766-.688-7.86-2.063-2.086-1.382-3.57-3.316-4.453-5.796l6.156-4.188c.657 1.68 1.567 2.934 2.735 3.766 1.164.836 2.289 1.25 3.375 1.25 1.27 0 2.148-.18 2.64-.547.5-.363.75-.879.75-1.547 0-.602-.218-1.14-.656-1.61-.43-.468-1.234-.913-2.422-1.343Zm0 0" style="stroke:none" transform="translate(529.52 414.594)"/></g><g style="fill:#3c3c3c;fill-opacity:1"><path d="M16.328 0H8.016v-22.828H.562v-6.797h23.25v6.797h-7.484Zm0 0" style="stroke:none" transform="translate(557.355 414.594)"/></g><g style="fill:#3c3c3c;fill-opacity:1"><path d="M29.469 0h-8.282l-1.921-6.188h-9.203L8.092 0H-.03L9.5-29.625h10.438ZM12.187-13.063h4.938c-.48-1.57-.93-3.07-1.344-4.5a39.094 39.094 0 0 1-1-4.359h-.156a35.32 35.32 0 0 1-1.016 4.313c-.418 1.406-.89 2.922-1.421 4.547Zm0 0" style="stroke:none" transform="translate(594.836 414.594)"/></g><g style="fill:#3c3c3c;fill-opacity:1"><path d="M13.906-11.203 9.61-12.766C7.41-13.578 5.707-14.64 4.5-15.953c-1.2-1.313-1.797-3.125-1.797-5.438 0-1.664.426-3.187 1.281-4.562.864-1.383 2.114-2.488 3.75-3.313 1.633-.82 3.614-1.234 5.938-1.234 5.52 0 9.18 1.965 10.984 5.89l-5.89 4.22a5.15 5.15 0 0 0-1.97-2.47c-.898-.613-1.823-.921-2.78-.921-1.344 0-2.246.18-2.704.531-.449.355-.671.824-.671 1.406 0 .836.859 1.543 2.578 2.125l4.906 1.594c2.145.71 3.89 1.793 5.234 3.25 1.344 1.46 2.016 3.355 2.016 5.688 0 3.21-1.016 5.687-3.047 7.437C20.305 0 17.41.875 13.641.875c-3.149 0-5.766-.688-7.86-2.063-2.086-1.382-3.57-3.316-4.453-5.796l6.156-4.188c.657 1.68 1.567 2.934 2.735 3.766 1.164.836 2.289 1.25 3.375 1.25 1.27 0 2.148-.18 2.64-.547.5-.363.75-.879.75-1.547 0-.602-.218-1.14-.656-1.61-.43-.468-1.234-.913-2.422-1.343Zm0 0" style="stroke:none" transform="translate(624.305 414.594)"/></g><g style="fill:#3c3c3c;fill-opacity:1"><path d="M29.469 0h-8.282l-1.921-6.188h-9.203L8.092 0H-.03L9.5-29.625h10.438ZM12.187-13.063h4.938c-.48-1.57-.93-3.07-1.344-4.5a39.094 39.094 0 0 1-1-4.359h-.156a35.32 35.32 0 0 1-1.016 4.313c-.418 1.406-.89 2.922-1.421 4.547Zm0 0" style="stroke:none" transform="translate(665.242 414.594)"/></g><g style="fill:#3c3c3c;fill-opacity:1"><path d="M28.078 0H17.813L13.03-11.281A30.49 30.49 0 0 1 12-14.016a88.509 88.509 0 0 1-.984-3.125 80.046 80.046 0 0 1-.72-2.562c-.179-.688-.265-1.031-.265-1.031l-.125.03s.035.345.11 1.032c.082.68.175 1.574.28 2.688.102 1.117.204 2.34.298 3.672.101 1.335.191 2.652.265 3.953.082 1.304.125 2.476.125 3.515V0h-7.75v-29.625h9.907l4.828 11.094c.426.937.843 1.945 1.25 3.015.406 1.075.758 2.09 1.062 3.047.301.95.54 1.719.719 2.313.176.594.266.89.266.89l.203.032s-.043-.352-.125-1.063a799.83 799.83 0 0 1-.282-2.734c-.117-1.114-.23-2.301-.343-3.563a115.04 115.04 0 0 1-.282-3.656 46.681 46.681 0 0 1-.109-2.875v-6.5h7.75Zm0 0" style="stroke:none" transform="translate(694.71 414.594)"/></g><g style="fill:#3c3c3c;fill-opacity:1"><path d="M29.469 0h-8.282l-1.921-6.188h-9.203L8.092 0H-.03L9.5-29.625h10.438ZM12.187-13.063h4.938c-.48-1.57-.93-3.07-1.344-4.5a39.094 39.094 0 0 1-1-4.359h-.156a35.32 35.32 0 0 1-1.016 4.313c-.418 1.406-.89 2.922-1.421 4.547Zm0 0" style="stroke:none" transform="translate(739.103 414.594)"/></g><g style="fill:#3c3c3c;fill-opacity:1"><path d="M23.36 0H3.233v-29.625h8.313v22.328h11.812Zm0 0" style="stroke:none" transform="translate(768.571 414.594)"/></g><g style="fill:#3c3c3c;fill-opacity:1"><path d="M16.328 0H8.016v-22.828H.562v-6.797h23.25v6.797h-7.484Zm0 0" style="stroke:none" transform="translate(793.103 414.594)"/></g><g style="fill:#3c3c3c;fill-opacity:1"><path d="M25.031 0H3.234v-29.625h21v6.797H11.437v4.406h10.829v6.64H11.438v4.985H25.03Zm0 0" style="stroke:none" transform="translate(817.483 414.594)"/></g><g style="fill:#3c3c3c;fill-opacity:1"><path d="M28 0h-9.734l-4.594-10.938h-2.39V0H3.233v-29.625h13.063c1.945 0 3.648.387 5.11 1.156 1.456.774 2.585 1.828 3.39 3.172.812 1.344 1.219 2.902 1.219 4.672 0 2.23-.391 3.996-1.172 5.297-.782 1.305-2 2.281-3.657 2.937ZM11.312-17.328h3.47c.882 0 1.593-.254 2.124-.766.532-.52.797-1.222.797-2.11 0-.812-.262-1.452-.781-1.921-.524-.469-1.235-.703-2.14-.703h-3.47Zm0 0" style="stroke:none" transform="translate(844.065 414.594)"/></g><g style="fill:#3c3c3c;fill-opacity:1"><path d="M28.078 0H17.813L13.03-11.281A30.49 30.49 0 0 1 12-14.016a88.509 88.509 0 0 1-.984-3.125 80.046 80.046 0 0 1-.72-2.562c-.179-.688-.265-1.031-.265-1.031l-.125.03s.035.345.11 1.032c.082.68.175 1.574.28 2.688.102 1.117.204 2.34.298 3.672.101 1.335.191 2.652.265 3.953.082 1.304.125 2.476.125 3.515V0h-7.75v-29.625h9.907l4.828 11.094c.426.937.843 1.945 1.25 3.015.406 1.075.758 2.09 1.062 3.047.301.95.54 1.719.719 2.313.176.594.266.89.266.89l.203.032s-.043-.352-.125-1.063a799.83 799.83 0 0 1-.282-2.734c-.117-1.114-.23-2.301-.343-3.563a115.04 115.04 0 0 1-.282-3.656 46.681 46.681 0 0 1-.109-2.875v-6.5h7.75Zm0 0" style="stroke:none" transform="translate(872.546 414.594)"/></g><g style="fill:#3c3c3c;fill-opacity:1"><path d="M29.469 0h-8.282l-1.921-6.188h-9.203L8.092 0H-.03L9.5-29.625h10.438ZM12.187-13.063h4.938c-.48-1.57-.93-3.07-1.344-4.5a39.094 39.094 0 0 1-1-4.359h-.156a35.32 35.32 0 0 1-1.016 4.313c-.418 1.406-.89 2.922-1.421 4.547Zm0 0" style="stroke:none" transform="translate(903.837 414.594)"/></g><g style="fill:#3c3c3c;fill-opacity:1"><path d="M16.328 0H8.016v-22.828H.562v-6.797h23.25v6.797h-7.484Zm0 0" style="stroke:none" transform="translate(933.306 414.594)"/></g><g style="fill:#3c3c3c;fill-opacity:1"><path d="M25.031 0H3.234v-29.625h21v6.797H11.437v4.406h10.829v6.64H11.438v4.985H25.03Zm0 0" style="stroke:none" transform="translate(957.686 414.594)"/></g><g style="fill:#3c3c3c;fill-opacity:1"><path d="M15.453 0H3.234v-29.625h12.22c2.632 0 5.003.594 7.108 1.781 2.102 1.188 3.758 2.887 4.97 5.094 1.218 2.2 1.827 4.844 1.827 7.938 0 3.187-.609 5.886-1.828 8.093-1.21 2.2-2.86 3.871-4.953 5.016C20.492-.566 18.118 0 15.453 0Zm-3.937-6.953h3.187c1.164 0 2.227-.27 3.188-.813.957-.539 1.726-1.39 2.312-2.546.582-1.157.875-2.657.875-4.5 0-1.852-.293-3.352-.875-4.5-.586-1.157-1.367-2.004-2.344-2.547a6.395 6.395 0 0 0-3.156-.813h-3.187Zm0 0" style="stroke:none" transform="translate(997.37 414.594)"/></g><g style="fill:#3c3c3c;fill-opacity:1"><path d="M11.844 0H3.422v-29.625h8.422Zm0 0" style="stroke:none" transform="translate(1028.433 414.594)"/></g><g style="fill:#3c3c3c;fill-opacity:1"><path d="M21.078-7.375v-3.14h-5.765v-6.844h12.796v13.375c-1.011 1.468-2.453 2.648-4.328 3.53C21.906.43 19.613.876 16.906.876c-3.199 0-5.933-.652-8.203-1.953-2.262-1.3-3.996-3.133-5.203-5.5-1.2-2.375-1.797-5.145-1.797-8.313 0-3.062.594-5.765 1.781-8.109 1.196-2.344 2.864-4.176 5-5.5 2.145-1.332 4.625-2 7.438-2 2.851 0 5.312.508 7.375 1.516 2.07 1.011 3.535 2.445 4.39 4.297l-4.968 4.671c-.637-1.144-1.453-2.023-2.453-2.64-1-.625-2.149-.938-3.438-.938-1.98 0-3.578.758-4.797 2.266-1.21 1.512-1.812 3.656-1.812 6.437 0 1.856.289 3.461.875 4.813.582 1.355 1.379 2.402 2.39 3.14 1.008.731 2.149 1.094 3.422 1.094 1.082 0 1.973-.148 2.672-.453.695-.312 1.195-.672 1.5-1.078Zm0 0" style="stroke:none" transform="translate(1043.698 414.594)"/></g><g style="fill:#3c3c3c;fill-opacity:1"><path d="M11.844 0H3.422v-29.625h8.422Zm0 0" style="stroke:none" transform="translate(1073.926 414.594)"/></g><g style="fill:#3c3c3c;fill-opacity:1"><path d="M16.328 0H8.016v-22.828H.562v-6.797h23.25v6.797h-7.484Zm0 0" style="stroke:none" transform="translate(1089.192 414.594)"/></g><g style="fill:#3c3c3c;fill-opacity:1"><path d="M29.469 0h-8.282l-1.921-6.188h-9.203L8.092 0H-.03L9.5-29.625h10.438ZM12.187-13.063h4.938c-.48-1.57-.93-3.07-1.344-4.5a39.094 39.094 0 0 1-1-4.359h-.156a35.32 35.32 0 0 1-1.016 4.313c-.418 1.406-.89 2.922-1.421 4.547Zm0 0" style="stroke:none" transform="translate(1113.572 414.594)"/></g><g style="fill:#3c3c3c;fill-opacity:1"><path d="M23.36 0H3.233v-29.625h8.313v22.328h11.812Zm0 0" style="stroke:none" transform="translate(1143.04 414.594)"/></g><g style="fill:#3c3c3c;fill-opacity:1"><path d="M13.906-11.203 9.61-12.766C7.41-13.578 5.707-14.64 4.5-15.953c-1.2-1.313-1.797-3.125-1.797-5.438 0-1.664.426-3.187 1.281-4.562.864-1.383 2.114-2.488 3.75-3.313 1.633-.82 3.614-1.234 5.938-1.234 5.52 0 9.18 1.965 10.984 5.89l-5.89 4.22a5.15 5.15 0 0 0-1.97-2.47c-.898-.613-1.823-.921-2.78-.921-1.344 0-2.246.18-2.704.531-.449.355-.671.824-.671 1.406 0 .836.859 1.543 2.578 2.125l4.906 1.594c2.145.71 3.89 1.793 5.234 3.25 1.344 1.46 2.016 3.355 2.016 5.688 0 3.21-1.016 5.687-3.047 7.437C20.305 0 17.41.875 13.641.875c-3.149 0-5.766-.688-7.86-2.063-2.086-1.382-3.57-3.316-4.453-5.796l6.156-4.188c.657 1.68 1.567 2.934 2.735 3.766 1.164.836 2.289 1.25 3.375 1.25 1.27 0 2.148-.18 2.64-.547.5-.363.75-.879.75-1.547 0-.602-.218-1.14-.656-1.61-.43-.468-1.234-.913-2.422-1.343Zm0 0" style="stroke:none" transform="translate(1180.673 414.594)"/></g><g style="fill:#3c3c3c;fill-opacity:1"><path d="M25.031 0H3.234v-29.625h21v6.797H11.437v4.406h10.829v6.64H11.438v4.985H25.03Zm0 0" style="stroke:none" transform="translate(1208.509 414.594)"/></g><g style="fill:#3c3c3c;fill-opacity:1"><path d="M23.36 0H3.233v-29.625h8.313v22.328h11.812Zm0 0" style="stroke:none" transform="translate(1235.091 414.594)"/></g><g style="fill:#3c3c3c;fill-opacity:1"><path d="M11.516 0H3.234v-29.625H23.47v6.797H11.516v5.703h10.359v6.64h-10.36Zm0 0" style="stroke:none" transform="translate(1259.623 414.594)"/></g><g style="fill:#3c3c3c;fill-opacity:1"><path d="M25.031 0H3.234v-29.625h21v6.797H11.437v4.406h10.829v6.64H11.438v4.985H25.03Zm0 0" style="stroke:none" transform="translate(594.779 467.07)"/></g><g style="fill:#3c3c3c;fill-opacity:1"><path d="M28.078 0H17.813L13.03-11.281A30.49 30.49 0 0 1 12-14.016a88.509 88.509 0 0 1-.984-3.125 80.046 80.046 0 0 1-.72-2.562c-.179-.688-.265-1.031-.265-1.031l-.125.03s.035.345.11 1.032c.082.68.175 1.574.28 2.688.102 1.117.204 2.34.298 3.672.101 1.335.191 2.652.265 3.953.082 1.304.125 2.476.125 3.515V0h-7.75v-29.625h9.907l4.828 11.094c.426.937.843 1.945 1.25 3.015.406 1.075.758 2.09 1.062 3.047.301.95.54 1.719.719 2.313.176.594.266.89.266.89l.203.032s-.043-.352-.125-1.063a799.83 799.83 0 0 1-.282-2.734c-.117-1.114-.23-2.301-.343-3.563a115.04 115.04 0 0 1-.282-3.656 46.681 46.681 0 0 1-.109-2.875v-6.5h7.75Zm0 0" style="stroke:none" transform="translate(621.361 467.07)"/></g><g style="fill:#3c3c3c;fill-opacity:1"><path d="m1.672.266-.5-6.875c.664.18 1.476.351 2.437.515.957.168 1.727.25 2.313.25.812 0 1.5-.226 2.062-.687.57-.457.86-1.117.86-1.985v-21.109h8.281v22.86c0 1.699-.402 3.117-1.203 4.25-.793 1.124-1.89 1.968-3.297 2.53-1.406.57-3.047.86-4.922.86A29.85 29.85 0 0 1 4.172.687C3.14.563 2.305.422 1.672.267Zm0 0" style="stroke:none" transform="translate(652.652 467.07)"/></g><g style="fill:#3c3c3c;fill-opacity:1"><path d="M15.688.875c-2.743 0-5.165-.617-7.266-1.844-2.094-1.226-3.742-3.02-4.938-5.375-1.187-2.351-1.78-5.203-1.78-8.547 0-3.27.593-6.066 1.78-8.39 1.196-2.332 2.844-4.117 4.938-5.36 2.101-1.238 4.523-1.859 7.265-1.859 2.758 0 5.176.633 7.25 1.89 2.083 1.25 3.711 3.044 4.891 5.376 1.176 2.324 1.766 5.105 1.766 8.343 0 3.344-.59 6.196-1.766 8.547-1.18 2.356-2.808 4.149-4.89 5.375C20.863.258 18.444.875 15.688.875Zm0-7.031c.937 0 1.816-.32 2.64-.969.82-.645 1.492-1.613 2.016-2.906.52-1.29.781-2.91.781-4.86 0-2.937-.527-5.097-1.578-6.484-1.055-1.395-2.34-2.094-3.86-2.094-.917 0-1.796.313-2.64.938-.844.617-1.543 1.558-2.094 2.828-.543 1.262-.812 2.867-.812 4.812 0 2.918.539 5.106 1.625 6.563 1.093 1.45 2.398 2.172 3.921 2.172Zm0 0" style="stroke:none" transform="translate(673.386 467.07)"/></g><g style="fill:#3c3c3c;fill-opacity:1"><path d="M16.797 0H8.469v-9.578L-.72-29.625H7.75l4.969 12.344 5.015-12.344h8.141L16.797-9.531Zm0 0" style="stroke:none" transform="translate(704.678 467.07)"/></g><g style="fill:#3c3c3c;fill-opacity:1"><path d="M16.797 0H8.469v-9.578L-.72-29.625H7.75l4.969 12.344 5.015-12.344h8.141L16.797-9.531Zm0 0" style="stroke:none" transform="translate(742.994 467.07)"/></g><g style="fill:#3c3c3c;fill-opacity:1"><path d="M15.688.875c-2.743 0-5.165-.617-7.266-1.844-2.094-1.226-3.742-3.02-4.938-5.375-1.187-2.351-1.78-5.203-1.78-8.547 0-3.27.593-6.066 1.78-8.39 1.196-2.332 2.844-4.117 4.938-5.36 2.101-1.238 4.523-1.859 7.265-1.859 2.758 0 5.176.633 7.25 1.89 2.083 1.25 3.711 3.044 4.891 5.376 1.176 2.324 1.766 5.105 1.766 8.343 0 3.344-.59 6.196-1.766 8.547-1.18 2.356-2.808 4.149-4.89 5.375C20.863.258 18.444.875 15.688.875Zm0-7.031c.937 0 1.816-.32 2.64-.969.82-.645 1.492-1.613 2.016-2.906.52-1.29.781-2.91.781-4.86 0-2.937-.527-5.097-1.578-6.484-1.055-1.395-2.34-2.094-3.86-2.094-.917 0-1.796.313-2.64.938-.844.617-1.543 1.558-2.094 2.828-.543 1.262-.812 2.867-.812 4.812 0 2.918.539 5.106 1.625 6.563 1.093 1.45 2.398 2.172 3.921 2.172Zm0 0" style="stroke:none" transform="translate(768.21 467.07)"/></g><g style="fill:#3c3c3c;fill-opacity:1"><path d="M20.094-11.25v-18.375h8.047v19.11c0 2.199-.54 4.163-1.61 5.89-1.074 1.719-2.547 3.07-4.422 4.047C20.234.39 18.094.875 15.687.875c-2.48 0-4.656-.496-6.53-1.484C7.28-1.598 5.82-2.953 4.78-4.672 3.75-6.39 3.234-8.336 3.234-10.516v-19.109h8.313v18.375c0 1.855.383 3.184 1.156 3.984.77.793 1.766 1.188 2.985 1.188 1.238 0 2.28-.395 3.124-1.188.852-.8 1.282-2.129 1.282-3.984Zm0 0" style="stroke:none" transform="translate(799.5 467.07)"/></g><g style="fill:#3c3c3c;fill-opacity:1"><path d="M28 0h-9.734l-4.594-10.938h-2.39V0H3.233v-29.625h13.063c1.945 0 3.648.387 5.11 1.156 1.456.774 2.585 1.828 3.39 3.172.812 1.344 1.219 2.902 1.219 4.672 0 2.23-.391 3.996-1.172 5.297-.782 1.305-2 2.281-3.657 2.937ZM11.312-17.328h3.47c.882 0 1.593-.254 2.124-.766.532-.52.797-1.222.797-2.11 0-.812-.262-1.452-.781-1.921-.524-.469-1.235-.703-2.14-.703h-3.47Zm0 0" style="stroke:none" transform="translate(830.868 467.07)"/></g><g style="fill:#3c3c3c;fill-opacity:1"><path d="M29.469 0h-8.282l-1.921-6.188h-9.203L8.092 0H-.03L9.5-29.625h10.438ZM12.187-13.063h4.938c-.48-1.57-.93-3.07-1.344-4.5a39.094 39.094 0 0 1-1-4.359h-.156a35.32 35.32 0 0 1-1.016 4.313c-.418 1.406-.89 2.922-1.421 4.547Zm0 0" style="stroke:none" transform="translate(872.45 467.07)"/></g><g style="fill:#3c3c3c;fill-opacity:1"><path d="M23.36 0H3.233v-29.625h8.313v22.328h11.812Zm0 0" style="stroke:none" transform="translate(901.919 467.07)"/></g><g style="fill:#3c3c3c;fill-opacity:1"><path d="M16.328 0H8.016v-22.828H.562v-6.797h23.25v6.797h-7.484Zm0 0" style="stroke:none" transform="translate(926.45 467.07)"/></g><g style="fill:#3c3c3c;fill-opacity:1"><path d="M15.453 0H3.234v-29.625h12.22c2.632 0 5.003.594 7.108 1.781 2.102 1.188 3.758 2.887 4.97 5.094 1.218 2.2 1.827 4.844 1.827 7.938 0 3.187-.609 5.886-1.828 8.093-1.21 2.2-2.86 3.871-4.953 5.016C20.492-.566 18.118 0 15.453 0Zm-3.937-6.953h3.187c1.164 0 2.227-.27 3.188-.813.957-.539 1.726-1.39 2.312-2.546.582-1.157.875-2.657.875-4.5 0-1.852-.293-3.352-.875-4.5-.586-1.157-1.367-2.004-2.344-2.547a6.395 6.395 0 0 0-3.156-.813h-3.187Zm0 0" style="stroke:none" transform="translate(950.83 467.07)"/></g><g style="fill:#3c3c3c;fill-opacity:1"><path d="M11.844 0H3.422v-29.625h8.422Zm0 0" style="stroke:none" transform="translate(981.894 467.07)"/></g><g style="fill:#3c3c3c;fill-opacity:1"><path d="M21.078-7.375v-3.14h-5.765v-6.844h12.796v13.375c-1.011 1.468-2.453 2.648-4.328 3.53C21.906.43 19.613.876 16.906.876c-3.199 0-5.933-.652-8.203-1.953-2.262-1.3-3.996-3.133-5.203-5.5-1.2-2.375-1.797-5.145-1.797-8.313 0-3.062.594-5.765 1.781-8.109 1.196-2.344 2.864-4.176 5-5.5 2.145-1.332 4.625-2 7.438-2 2.851 0 5.312.508 7.375 1.516 2.07 1.011 3.535 2.445 4.39 4.297l-4.968 4.671c-.637-1.144-1.453-2.023-2.453-2.64-1-.625-2.149-.938-3.438-.938-1.98 0-3.578.758-4.797 2.266-1.21 1.512-1.812 3.656-1.812 6.437 0 1.856.289 3.461.875 4.813.582 1.355 1.379 2.402 2.39 3.14 1.008.731 2.149 1.094 3.422 1.094 1.082 0 1.973-.148 2.672-.453.695-.312 1.195-.672 1.5-1.078Zm0 0" style="stroke:none" transform="translate(997.16 467.07)"/></g><g style="fill:#3c3c3c;fill-opacity:1"><path d="M11.844 0H3.422v-29.625h8.422Zm0 0" style="stroke:none" transform="translate(1027.387 467.07)"/></g><g style="fill:#3c3c3c;fill-opacity:1"><path d="M23.36 0H3.233v-29.625h8.313v22.328h11.812Zm0 0" style="stroke:none" transform="translate(1055.755 467.07)"/></g><g style="fill:#3c3c3c;fill-opacity:1"><path d="M11.844 0H3.422v-29.625h8.422Zm0 0" style="stroke:none" transform="translate(1080.286 467.07)"/></g><g style="fill:#3c3c3c;fill-opacity:1"><path d="M11.516 0H3.234v-29.625H23.47v6.797H11.516v5.703h10.359v6.64h-10.36Zm0 0" style="stroke:none" transform="translate(1095.552 467.07)"/></g><g style="fill:#3c3c3c;fill-opacity:1"><path d="M25.031 0H3.234v-29.625h21v6.797H11.437v4.406h10.829v6.64H11.438v4.985H25.03Zm0 0" style="stroke:none" transform="translate(1120.388 467.07)"/></g><g style="fill:#3c3c3c;fill-opacity:1"><path d="M11.016-9.61h-6.61L3.72-29.624h7.984ZM11.78 0H3.687v-7.375h8.094Zm0 0" style="stroke:none" transform="translate(1146.97 467.07)"/></g><g style="fill:#3c3c3c;fill-opacity:1"><path d="M11.016-9.61h-6.61L3.72-29.624h7.984ZM11.78 0H3.687v-7.375h8.094Zm0 0" style="stroke:none" transform="translate(1162.16 467.07)"/></g><g style="fill:#3c3c3c;fill-opacity:1"><path d="M23.844 0H3.297v-30.25h8.5v22.797h12.047Zm0 0" style="stroke:none" transform="translate(1355.42 413.18)"/></g><g style="fill:#3c3c3c;fill-opacity:1"><path d="M12.094 0h-8.61v-30.25h8.61Zm0 0" style="stroke:none" transform="translate(1382.181 413.18)"/></g><g style="fill:#3c3c3c;fill-opacity:1"><path d="M20.125 0H9.235L.343-30.25h9.125l3.906 15.203c.258.906.492 1.86.703 2.86.207.992.379 1.828.516 2.515.144.688.219 1.031.219 1.031h.156l.187-1.046c.133-.708.305-1.555.516-2.547.207-1 .426-1.938.656-2.813l3.844-15.203h8.797Zm0 0" style="stroke:none" transform="translate(1399.479 413.18)"/></g><g style="fill:#3c3c3c;fill-opacity:1"><path d="M25.563 0H3.297v-30.25H24.75v6.938H11.672v4.5h11.047v6.796H11.672v5.079h13.89Zm0 0" style="stroke:none" transform="translate(1430.66 413.18)"/></g><g style="fill:#3c3c3c;fill-opacity:1"><path d="M30.094 0H21.64l-1.985-6.328h-9.375L8.266 0H-.031l9.719-30.25h10.671Zm-17.64-13.344h5.03c-.492-1.601-.949-3.133-1.375-4.594a39.089 39.089 0 0 1-1.03-4.437h-.142a39.266 39.266 0 0 1-1.03 4.406 214.7 214.7 0 0 1-1.454 4.625Zm0 0" style="stroke:none" transform="translate(1474.602 413.18)"/></g><g style="fill:#3c3c3c;fill-opacity:1"><path d="M23.844 0H3.297v-30.25h8.5v22.797h12.047Zm0 0" style="stroke:none" transform="translate(1506.404 413.18)"/></g><g style="fill:#3c3c3c;fill-opacity:1"><path d="M16.672 0H8.187v-23.313H.579v-6.937h23.735v6.938h-7.641Zm0 0" style="stroke:none" transform="translate(1533.165 413.18)"/></g><g style="fill:#3c3c3c;fill-opacity:1"><path d="M25.563 0H3.297v-30.25H24.75v6.938H11.672v4.5h11.047v6.796H11.672v5.079h13.89Zm0 0" style="stroke:none" transform="translate(1559.77 413.18)"/></g><g style="fill:#3c3c3c;fill-opacity:1"><path d="M28.578 0h-9.922L13.97-11.172h-2.453V0h-8.22v-30.25h13.345c1.988 0 3.722.398 5.203 1.188 1.488.78 2.644 1.859 3.468 3.234.833 1.375 1.25 2.965 1.25 4.765 0 2.282-.402 4.09-1.203 5.422-.804 1.325-2.043 2.325-3.718 3ZM11.563-17.688h3.515c.906 0 1.629-.265 2.172-.796.55-.532.828-1.243.828-2.141 0-.832-.265-1.488-.797-1.969-.531-.476-1.265-.718-2.203-.718h-3.515Zm0 0" style="stroke:none" transform="translate(1588.625 413.18)"/></g><g style="fill:#3c3c3c;fill-opacity:1"><path d="M28.656 0H18.188l-4.891-11.516a36.426 36.426 0 0 1-1.047-2.796 126.928 126.928 0 0 1-1-3.188c-.313-1.05-.563-1.926-.75-2.625-.18-.695-.266-1.047-.266-1.047l-.109.031s.035.352.11 1.047c.081.7.175 1.621.28 2.766.102 1.137.204 2.383.297 3.734.102 1.356.192 2.7.266 4.031.082 1.336.125 2.532.125 3.594V0H3.297v-30.25h10.125l4.922 11.328c.437.961.863 1.992 1.281 3.094a57.51 57.51 0 0 1 1.078 3.094c.313.968.555 1.757.735 2.359l.28.906.188.047s-.043-.36-.125-1.078c-.074-.727-.168-1.66-.281-2.797a252.55 252.55 0 0 1-.344-3.656c-.117-1.29-.215-2.531-.297-3.719a48.71 48.71 0 0 1-.109-2.953v-6.625h7.906Zm0 0" style="stroke:none" transform="translate(1619.418 413.18)"/></g><g style="fill:#3c3c3c;fill-opacity:1"><path d="M30.094 0H21.64l-1.985-6.328h-9.375L8.266 0H-.031l9.719-30.25h10.671Zm-17.64-13.344h5.03c-.492-1.601-.949-3.133-1.375-4.594a39.089 39.089 0 0 1-1.03-4.437h-.142a39.266 39.266 0 0 1-1.03 4.406 214.7 214.7 0 0 1-1.454 4.625Zm0 0" style="stroke:none" transform="translate(1653.082 413.18)"/></g><g style="fill:#3c3c3c;fill-opacity:1"><path d="M16.672 0H8.187v-23.313H.579v-6.937h23.735v6.938h-7.641Zm0 0" style="stroke:none" transform="translate(1684.885 413.18)"/></g><g style="fill:#3c3c3c;fill-opacity:1"><path d="M12.094 0h-8.61v-30.25h8.61Zm0 0" style="stroke:none" transform="translate(1711.49 413.18)"/></g><g style="fill:#3c3c3c;fill-opacity:1"><path d="M20.125 0H9.235L.343-30.25h9.125l3.906 15.203c.258.906.492 1.86.703 2.86.207.992.379 1.828.516 2.515.144.688.219 1.031.219 1.031h.156l.187-1.046c.133-.708.305-1.555.516-2.547.207-1 .426-1.938.656-2.813l3.844-15.203h8.797Zm0 0" style="stroke:none" transform="translate(1728.787 413.18)"/></g><g style="fill:#3c3c3c;fill-opacity:1"><path d="M25.563 0H3.297v-30.25H24.75v6.938H11.672v4.5h11.047v6.796H11.672v5.079h13.89Zm0 0" style="stroke:none" transform="translate(1759.969 413.18)"/></g><g style="fill:#3c3c3c;fill-opacity:1"><path d="M23.844 0H3.297v-30.25h8.5v22.797h12.047Zm0 0" style="stroke:none" transform="translate(1788.824 413.18)"/></g><g style="fill:#3c3c3c;fill-opacity:1"><path d="M17.14 0h-8.5v-9.766L-.733-30.25h8.64l5.078 12.61 5.125-12.61h8.297L17.141-9.734Zm0 0" style="stroke:none" transform="translate(1815.584 413.18)"/></g><g style="fill:#3c3c3c;fill-opacity:1"><path d="M16.672 0H8.187v-23.313H.579v-6.937h23.735v6.938h-7.641Zm0 0" style="stroke:none" transform="translate(1355.42 467.155)"/></g><g style="fill:#3c3c3c;fill-opacity:1"><path d="M28.781 0h-8.578v-12.063h-8.406V0h-8.5v-30.25h8.5v11.172h8.406V-30.25h8.578Zm0 0" style="stroke:none" transform="translate(1382.026 467.155)"/></g><g style="fill:#3c3c3c;fill-opacity:1"><path d="M25.563 0H3.297v-30.25H24.75v6.938H11.672v4.5h11.047v6.796H11.672v5.079h13.89Zm0 0" style="stroke:none" transform="translate(1415.806 467.155)"/></g><g style="fill:#3c3c3c;fill-opacity:1"><path d="M28.578 0h-9.922L13.97-11.172h-2.453V0h-8.22v-30.25h13.345c1.988 0 3.722.398 5.203 1.188 1.488.78 2.644 1.859 3.468 3.234.833 1.375 1.25 2.965 1.25 4.765 0 2.282-.402 4.09-1.203 5.422-.804 1.325-2.043 2.325-3.718 3ZM11.563-17.688h3.515c.906 0 1.629-.265 2.172-.796.55-.532.828-1.243.828-2.141 0-.832-.265-1.488-.797-1.969-.531-.476-1.265-.718-2.203-.718h-3.515Zm0 0" style="stroke:none" transform="translate(1444.661 467.155)"/></g><g style="fill:#3c3c3c;fill-opacity:1"><path d="M25.563 0H3.297v-30.25H24.75v6.938H11.672v4.5h11.047v6.796H11.672v5.079h13.89Zm0 0" style="stroke:none" transform="translate(1475.455 467.155)"/></g><g style="fill:#3c3c3c;fill-opacity:1"><path d="M11.75 0H3.297v-30.25h20.672v6.938H11.75v5.828h10.594v6.78H11.75Zm0 0" style="stroke:none" transform="translate(1504.31 467.155)"/></g><g style="fill:#3c3c3c;fill-opacity:1"><path d="M16.016.89c-2.793 0-5.262-.624-7.407-1.874C6.461-2.242 4.781-4.07 3.563-6.47 2.351-8.875 1.75-11.785 1.75-15.203c0-3.332.602-6.188 1.813-8.563 1.218-2.382 2.898-4.207 5.046-5.468 2.145-1.27 4.614-1.907 7.407-1.907 2.82 0 5.289.641 7.406 1.922 2.125 1.282 3.785 3.11 4.984 5.485 1.196 2.375 1.797 5.218 1.797 8.53 0 3.419-.601 6.329-1.797 8.735-1.199 2.399-2.86 4.227-4.984 5.485C21.305.266 18.836.89 16.016.89Zm0-7.171c.957 0 1.851-.328 2.687-.985.844-.664 1.531-1.656 2.063-2.968.53-1.32.797-2.977.797-4.97 0-3-.54-5.206-1.61-6.624-1.074-1.426-2.387-2.14-3.937-2.14-.93 0-1.828.32-2.703.952-.868.637-1.575 1.602-2.126 2.891-.554 1.293-.828 2.934-.828 4.922 0 2.969.551 5.2 1.657 6.687 1.113 1.493 2.445 2.235 4 2.235Zm0 0" style="stroke:none" transform="translate(1531.38 467.155)"/></g><g style="fill:#3c3c3c;fill-opacity:1"><path d="M28.578 0h-9.922L13.97-11.172h-2.453V0h-8.22v-30.25h13.345c1.988 0 3.722.398 5.203 1.188 1.488.78 2.644 1.859 3.468 3.234.833 1.375 1.25 2.965 1.25 4.765 0 2.282-.402 4.09-1.203 5.422-.804 1.325-2.043 2.325-3.718 3ZM11.563-17.688h3.515c.906 0 1.629-.265 2.172-.796.55-.532.828-1.243.828-2.141 0-.832-.265-1.488-.797-1.969-.531-.476-1.265-.718-2.203-.718h-3.515Zm0 0" style="stroke:none" transform="translate(1565.044 467.155)"/></g><g style="fill:#3c3c3c;fill-opacity:1"><path d="M25.563 0H3.297v-30.25H24.75v6.938H11.672v4.5h11.047v6.796H11.672v5.079h13.89Zm0 0" style="stroke:none" transform="translate(1595.838 467.155)"/></g><g style="fill:#3c3c3c;fill-opacity:1"><path d="M6.984 6.406 4.188 4.031c.957-.336 1.69-.875 2.203-1.625.52-.75.78-1.554.78-2.406H2.72v-8.031h8.062v7.61c0 1.5-.324 2.843-.969 4.03-.648 1.188-1.59 2.118-2.828 2.797Zm0 0" style="stroke:none" transform="translate(1624.693 467.155)"/></g><g style="fill:#3c3c3c;fill-opacity:1"><path d="M17.14 0h-8.5v-9.766L-.733-30.25h8.64l5.078 12.61 5.125-12.61h8.297L17.141-9.734Zm0 0" style="stroke:none" transform="translate(1654.866 467.155)"/></g><g style="fill:#3c3c3c;fill-opacity:1"><path d="M16.016.89c-2.793 0-5.262-.624-7.407-1.874C6.461-2.242 4.781-4.07 3.563-6.47 2.351-8.875 1.75-11.785 1.75-15.203c0-3.332.602-6.188 1.813-8.563 1.218-2.382 2.898-4.207 5.046-5.468 2.145-1.27 4.614-1.907 7.407-1.907 2.82 0 5.289.641 7.406 1.922 2.125 1.282 3.785 3.11 4.984 5.485 1.196 2.375 1.797 5.218 1.797 8.53 0 3.419-.601 6.329-1.797 8.735-1.199 2.399-2.86 4.227-4.984 5.485C21.305.266 18.836.89 16.016.89Zm0-7.171c.957 0 1.851-.328 2.687-.985.844-.664 1.531-1.656 2.063-2.968.53-1.32.797-2.977.797-4.97 0-3-.54-5.206-1.61-6.624-1.074-1.426-2.387-2.14-3.937-2.14-.93 0-1.828.32-2.703.952-.868.637-1.575 1.602-2.126 2.891-.554 1.293-.828 2.934-.828 4.922 0 2.969.551 5.2 1.657 6.687 1.113 1.493 2.445 2.235 4 2.235Zm0 0" style="stroke:none" transform="translate(1682.325 467.155)"/></g><g style="fill:#3c3c3c;fill-opacity:1"><path d="M20.516-11.484V-30.25h8.218v19.5c0 2.25-.554 4.258-1.656 6.016-1.094 1.761-2.601 3.14-4.515 4.14-1.907.989-4.09 1.485-6.547 1.485-2.532 0-4.758-.508-6.672-1.516-1.918-1.008-3.406-2.39-4.469-4.14C3.82-6.524 3.297-8.52 3.297-10.75v-19.5h8.5v18.766c0 1.898.39 3.25 1.172 4.062.789.813 1.804 1.219 3.047 1.219 1.27 0 2.336-.406 3.203-1.219.863-.812 1.297-2.164 1.297-4.062Zm0 0" style="stroke:none" transform="translate(1715.989 467.155)"/></g><g style="fill:#3c3c3c;fill-opacity:1"><path d="M30.094 0H21.64l-1.985-6.328h-9.375L8.266 0H-.031l9.719-30.25h10.671Zm-17.64-13.344h5.03c-.492-1.601-.949-3.133-1.375-4.594a39.089 39.089 0 0 1-1.03-4.437h-.142a39.266 39.266 0 0 1-1.03 4.406 214.7 214.7 0 0 1-1.454 4.625Zm0 0" style="stroke:none" transform="translate(1764.817 467.155)"/></g><g style="fill:#3c3c3c;fill-opacity:1"><path d="M28.578 0h-9.922L13.97-11.172h-2.453V0h-8.22v-30.25h13.345c1.988 0 3.722.398 5.203 1.188 1.488.78 2.644 1.859 3.468 3.234.833 1.375 1.25 2.965 1.25 4.765 0 2.282-.402 4.09-1.203 5.422-.804 1.325-2.043 2.325-3.718 3ZM11.563-17.688h3.515c.906 0 1.629-.265 2.172-.796.55-.532.828-1.243.828-2.141 0-.832-.265-1.488-.797-1.969-.531-.476-1.265-.718-2.203-.718h-3.515Zm0 0" style="stroke:none" transform="translate(1796.62 467.155)"/></g><g style="fill:#3c3c3c;fill-opacity:1"><path d="M25.563 0H3.297v-30.25H24.75v6.938H11.672v4.5h11.047v6.796H11.672v5.079h13.89Zm0 0" style="stroke:none" transform="translate(1827.413 467.155)"/></g></svg>