<svg xmlns="http://www.w3.org/2000/svg" width="512" height="512" version="1.2" viewBox="0 0 384 384"><defs><clipPath id="a"><path d="M38.934 71.914H345v240.172H38.934Zm0 0"/></clipPath><clipPath id="b"><path d="M47.184 71.914h289.632a8.25 8.25 0 0 1 8.25 8.25v223.672a8.25 8.25 0 0 1-8.25 8.25H47.184a8.25 8.25 0 0 1-8.25-8.25V80.164a8.25 8.25 0 0 1 8.25-8.25Zm0 0"/></clipPath></defs><g clip-path="url(#a)"><g clip-path="url(#b)"><path d="M38.934 71.914H344.78v240.172H38.934Zm0 0" style="stroke:none;fill-rule:nonzero;fill:#5db5bd;fill-opacity:1"/></g></g><path d="M-.002 30.002h155.448" style="fill:none;stroke-width:60;stroke-linecap:butt;stroke-linejoin:miter;stroke:#fff;stroke-opacity:1;stroke-miterlimit:4" transform="rotate(90 15.1 114.964) scale(.74789)"/><path d="M-.002 30.002h155.448" style="fill:none;stroke-width:60;stroke-linecap:butt;stroke-linejoin:miter;stroke:#fff;stroke-opacity:1;stroke-miterlimit:4" transform="rotate(90 94.066 193.931) scale(.74789)"/><path d="M0 17 68.006 17" style="fill:none;stroke-width:34;stroke-linecap:butt;stroke-linejoin:miter;stroke:#fff;stroke-opacity:1;stroke-miterlimit:4" transform="rotate(134.779 109.65 193.728) scale(.75)"/><path d="M0 17.001h67.5" style="fill:none;stroke-width:34;stroke-linecap:butt;stroke-linejoin:miter;stroke:#fff;stroke-opacity:1;stroke-miterlimit:4" transform="rotate(45 -148.022 444.007) scale(.75)"/></svg>